<?xml version="1.0" encoding="UTF-8"?><svg xmlns="http://www.w3.org/2000/svg" viewBox="0 0 22.26 12.92"><defs><style>.d{fill:#06588b;}</style></defs><g id="a"/><g id="b"><g id="c"><g><path class="d" d="M21.87,7.59v-.02s-.04-.05-.06-.08c-.2-.29-.44-.53-.72-.71-.8-.75-1.6-1.5-2.4-2.25-.82-.77-1.63-1.55-2.44-2.33-.21-.2-.45-.24-.61-.1-.12,.1-.24,.2-.36,.31-.27,.24-.42,.24-.66-.03-.62-.67-1.22-1.35-1.85-2-.42-.44-1.01-.51-1.49-.17-.38,.27-.74,.57-1.1,.86-.34,.28-.66,.57-1,.84-.45,.37-.91,.72-1.36,1.09-.44,.36-.87,.74-1.32,1.11-.44,.36-.9,.71-1.34,1.07-.45,.37-.88,.76-1.33,1.12-.53,.43-1.07,.85-1.61,1.28-.49,.39-.97,.79-1.45,1.18-.13,.11-.25,.23-.37,.34l.03,.05c.06-.02,.13-.03,.18-.06,1.37-.71,2.73-1.42,4.1-2.13,.62-.33,1.14-.76,1.48-1.39,.06-.12,.17-.21,.25-.31l.08,.03c.02,.1,.05,.2,.05,.3,.02,.46,.03,.93,.06,1.39,.01,.17,.09,.33,.14,.5,.13-.11,.29-.19,.39-.32,.74-.97,1.47-1.96,2.2-2.94,.09-.12,.2-.22,.32-.35,.08,.13,.12,.22,.19,.3,.22,.27,.43,.55,.68,.78,.12,.11,.33,.11,.5,.16,0-.16,0-.33-.02-.49-.02-.14-.08-.27-.1-.41-.02-.15-.02-.31-.03-.47l.09-.06c.15,.14,.32,.26,.43,.42,.32,.46,.62,.94,.93,1.41,.59,.91,1.17,1.82,1.76,2.72,.09,.14,.21,.25,.32,.37l.1-.06c-.04-.26-.04-.53-.11-.79-.42-1.45-.85-2.91-1.28-4.36-.24-.8-.5-1.6-.74-2.4-.02-.07,.02-.16,.03-.24,.07,.04,.15,.05,.19,.11,.22,.3,.46,.59,.65,.92,.92,1.65,1.82,3.31,2.73,4.97,.54,.98,1.08,1.95,1.62,2.92,.07,.13,.2,.23,.3,.35l.11-.04c.02-1.49-.25-2.97-.28-4.53,.19,.07,.34,.11,.46,.18,1.01,.56,2.02,1.12,3.03,1.68,.05,.09,.08,.19,.11,.31,.24,.86-.15,1.84-.98,2.46-.9,.67-1.94,.88-3.02,.94-1.48,.09-2.93-.13-4.34-.56-2-.61-4.03-.95-6.12-.91-1.09,.02-2.18,.15-3.26,.3-1.26,.17-2.47,.53-3.64,1.06,.49-.09,.97-.2,1.46-.26,.9-.12,1.8-.25,2.7-.3,1.21-.07,2.42,.06,3.61,.3,.89,.18,1.78,.34,2.65,.6,1.15,.34,2.28,.76,3.41,1.16,.8,.28,1.62,.43,2.46,.48,.57,.03,1.15-.02,1.71-.11,1.39-.22,2.63-.78,3.57-1.88,.8-.93,.93-2.31,.31-3.33Z"/><path class="d" d="M11.05,8.96l.04,.02-.04-.02h0Z"/></g></g></g></svg>