<?xml version="1.0" encoding="UTF-8"?><svg xmlns="http://www.w3.org/2000/svg" viewBox="0 0 389.05 73.06">
<defs>
<style>
    .d{fill:#fff;}
    .e{fill:#1278b1;}
    .f{fill:#1c9ed7;}
    .g{fill:#ffffff;}
    .h{fill:#06588b;}
    .g{stroke:#231f20;stroke-miterlimit:10;stroke-width:.48px;}
</style>
</defs>
    <g id="a"/>
    <g id="b">
        <g id="c">
            <g>
                <g>
                    <path class="d" d="M27.41,51.55c.7-.64,1.38-1.32,2.12-1.93,2.72-2.25,5.45-4.49,8.2-6.7,3.02-2.43,6.09-4.8,9.1-7.25,2.55-2.08,5-4.27,7.55-6.35,2.5-2.05,5.07-4,7.57-6.05,2.51-2.05,4.95-4.19,7.46-6.25,2.54-2.08,5.14-4.09,7.69-6.16,1.91-1.56,3.75-3.2,5.66-4.76,2.05-1.67,4.08-3.37,6.23-4.89,2.71-1.91,6.04-1.55,8.43,.95,3.55,3.72,6.96,7.56,10.46,11.33,1.39,1.49,2.25,1.48,3.75,.14,.66-.59,1.34-1.17,2.01-1.75,.89-.76,2.29-.54,3.46,.58,4.61,4.38,9.19,8.79,13.82,13.15,5.32,5.02,10.68,9.99,16.02,15,.73,.68,1.38,1.44,2.07,2.16l-.2,.34c-.64-.27-1.31-.49-1.92-.83-6.22-3.44-12.42-6.91-18.65-10.34-.71-.39-1.52-.6-2.62-1.02,.17,8.81,1.69,17.18,1.57,25.6l-.6,.22c-.57-.65-1.27-1.22-1.68-1.95-3.1-5.49-6.15-11-9.19-16.52-5.15-9.36-10.25-18.75-15.46-28.09-1.02-1.83-2.39-3.48-3.65-5.18-.23-.31-.73-.42-1.1-.62-.07,.45-.31,.95-.19,1.34,1.36,4.53,2.82,9.04,4.17,13.57,2.45,8.2,4.89,16.4,7.26,24.63,.41,1.43,.44,2.96,.64,4.45l-.55,.32c-.6-.69-1.29-1.33-1.79-2.09-3.33-5.11-6.62-10.26-9.93-15.39-1.73-2.67-3.43-5.36-5.26-7.96-.64-.91-1.63-1.58-2.46-2.35l-.52,.33c.04,.88,.02,1.77,.15,2.63,.12,.79,.47,1.55,.57,2.34,.12,.91,.07,1.84,.09,2.76-.96-.28-2.18-.3-2.84-.91-1.43-1.31-2.59-2.91-3.83-4.42-.37-.45-.62-.99-1.07-1.71-.7,.77-1.32,1.34-1.81,2.01-4.15,5.53-8.26,11.1-12.44,16.61-.56,.74-1.46,1.23-2.2,1.83-.28-.94-.73-1.86-.81-2.81-.2-2.62-.23-5.25-.37-7.88-.03-.57-.2-1.14-.31-1.7l-.43-.18c-.48,.58-1.07,1.11-1.42,1.76-1.94,3.55-4.89,6.01-8.39,7.85-7.7,4.05-15.44,8.05-23.16,12.06-.31,.16-.68,.23-1.02,.34l-.18-.31Z"/>
                    <path class="e" d="M45.38,61.82c6.56-2.97,13.44-5,20.55-5.97,6.11-.84,12.29-1.56,18.45-1.69,11.78-.25,23.3,1.66,34.58,5.12,7.97,2.44,16.15,3.66,24.51,3.17,6.12-.36,12.03-1.56,17.09-5.33,4.7-3.51,6.88-9.04,5.54-13.92-.73-2.68-1.86-4.03-5.58-6.81,3.44,1.06,6.23,3.02,8.26,6.05,3.85,5.76,3.17,13.88-1.5,19.3-5.35,6.21-12.3,9.37-20.19,10.64-3.19,.51-6.48,.82-9.69,.63-4.72-.27-9.39-1.13-13.89-2.71-6.41-2.25-12.77-4.63-19.27-6.57-4.89-1.46-9.95-2.37-14.96-3.4-6.72-1.38-13.54-2.09-20.39-1.71-5.11,.28-10.19,1.05-15.27,1.72-2.76,.36-5.49,.98-8.23,1.49Z"/>
                    <path class="h" d="M87.79,50.64c-4.14-.02-8.29-.29-12.41,0-7.76,.53-15.39,1.95-22.79,4.4-5.39,1.78-10.65,3.96-16.06,5.67-3.91,1.24-7.93,2.43-11.98,2.86-4.92,.52-9.94,.35-14.68-1.52-3.16-1.25-6.29-2.57-9.43-3.87-.17-.07-.31-.21-.45-.31,2.99,.32,5.97,.69,8.96,.95,7.3,.65,14.12-1.2,20.91-3.71,13.74-5.09,27.93-8,42.66-7.12,4.61,.27,9.17,1.33,13.74,2.06,.52,.08,1,.4,1.51,.61h.02Z"/>
                    <path class="f" d="M145.79,34.56c4.94-.03,9.46,1.09,13.1,4.5,3.85,3.61,4.39,8.98,1.21,13.18-3.61,4.77-8.59,6.94-14.53,6.95,2.15-1.36,4.37-2.53,6.33-4.05,5.22-4.06,6.29-10.39,2.72-15.42-1.98-2.79-4.81-4.21-8.1-4.86-.2-.04-.39-.06-.59-.1-.04,0-.06-.08-.15-.19Z"/>
                </g>
                <g>
                    <path class="g" d="M324.47,30.1h7.16c-.81,3.95-1.57,7.68-2.34,11.4-.42,2.03-.84,4.05-1.29,6.07-.28,1.25-.6,2.61,.71,3.36,1.39,.8,2.85,.39,4-.68,.6-.55,.98-1.33,1.54-1.93,.71-.76,1.5-1.43,2.73-2.6,.51-3.5,1.61-7.56,4.2-11.07,1.51-2.06,3.35-3.77,5.81-4.46,2.61-.73,5.3-1,7.82,1.3,.86-3.81,1.66-7.37,2.5-11.08l7.25-1.01c-.55,2.88-.99,5.48-1.54,8.05-1.33,6.27-2.72,12.53-4.07,18.79-.13,.61-.34,1.26-.24,1.84,.18,1.02,.49,2.81,.89,2.85,1.19,.13,3.06-.04,3.58-.81,1.77-2.61,4.64-4.43,4.98-8.18,.32-3.64,2.33-6.84,5.05-9.4,2.73-2.57,6.02-3.64,9.71-2.97,2.74,.5,3.83,2.01,3.86,4.79,.04,4.58-3.63,8.86-8.86,10.31-.89,.25-1.81,.41-2.83,.64-.83,1.99-.75,3.94,.52,5.57,1.26,1.61,3.26,1.47,4.88,.83,1.97-.77,3.77-1.99,5.58-3.13,.89-.56,1.62-1.36,2.56-1.89-2.28,6.42-9.51,10.51-15.93,9.19-2.61-.54-4.5-2.02-5.12-4.79-.2-.9-.45-1.79-.77-3.07-.68,1.1-1.1,1.99-1.71,2.71-1.13,1.33-2.18,2.84-3.6,3.77-4.03,2.65-7.48,1.72-10.07-2.44-6.13,6.46-13.53,5.38-14.84-4.06-.68,1.11-1.19,1.96-1.72,2.79-1.3,2.06-2.93,3.78-5.28,4.61-2.41,.85-4.92,1.3-7.08-.46-2.05-1.67-2.3-4.11-1.84-6.55,.78-4.17,1.68-8.31,2.55-12.46,.4-1.91,.82-3.81,1.26-5.85Zm20,15.25c-.03,4.4,.49,5.54,2.1,5.87,1.89,.39,3.99-1.15,4.82-3.56,.17-.49,.25-1,.36-1.51,.7-3.23,1.45-6.46,2.08-9.7,.25-1.28,.75-3.02-.96-3.46-1.08-.27-2.56,.29-3.63,.88-.83,.46-1.43,1.49-1.92,2.38-1.77,3.22-2.74,6.68-2.83,9.1Zm30.83-2.54c4.47-.21,7.32-4.39,7.66-7.65,.1-.97-.56-2.02-.88-3.03-.96,.4-2.21,.55-2.83,1.25-2.29,2.58-3.4,5.75-3.94,9.42Z"/>
                    <path class="g" d="M254.35,54.14c3.4-.89,4.98-3.06,6.24-5.64,.36-.73,1.08-1.29,1.96-1.66-.83,3.94-2.69,7.15-6.52,8.62-1.71,.65-2.36,1.68-2.72,3.31-.4,1.81-.84,3.65-1.59,5.32-1.55,3.46-4.79,5.22-8.57,4.9-2.08-.18-3.95-.93-4.68-3-.72-2.04-.59-4.28,1.16-5.76,1.62-1.37,3.55-2.46,5.49-3.36,1.36-.63,1.9-1.38,1.76-3.14-2.77,2.09-5.65,3.07-8.77,1.9-3.3-1.23-3.89-4.28-4.38-7.77-.92,1.43-1.59,2.54-2.32,3.61-2.15,3.13-5.07,4.8-8.94,4.57-2.69-.16-4.47-1.71-4.68-4.43-.14-1.84-.05-3.74,.29-5.55,.84-4.57,1.87-9.11,2.86-13.65,.17-.79,.47-1.55,.73-2.38h6.97c-.85,4.21-1.69,8.29-2.51,12.38-.39,1.92-.9,3.83-1.1,5.78-.09,.91,.18,2.42,.74,2.69,.86,.41,2.24,.24,3.19-.17,.87-.38,1.45-1.41,2.16-2.14,.79-.81,1.6-1.6,2.27-2.27,1.28-3.43,2.24-6.95,3.87-10.12,1.8-3.5,4.66-6.06,8.93-6.41,2.03-.16,3.93-.02,5.17,1.38,2.49-2.23,5.26-.79,8.1-1.28-1.74,8.27-3.39,16.11-5.1,24.26Zm-13.5-7.83c.39,3.08,1.18,4.68,2.85,4.94,1.81,.28,3.65-1.09,4.58-3.42,.11-.29,.24-.58,.3-.88,.82-3.82,1.7-7.63,2.41-11.47,.41-2.19-1.13-3.52-3.11-2.54-1.38,.69-2.85,1.93-3.46,3.29-1.45,3.25-2.42,6.71-3.58,10.09Zm4.87,13.07l-.79-.6c-1.35,1.17-2.83,2.22-3.97,3.57-.33,.39,.06,1.94,.58,2.33,.48,.35,1.87,.14,2.36-.34,1.36-1.32,1.89-3.08,1.82-4.96Z"/>
                    <path class="g" d="M201.05,17.16l-3.11,15.14h7.91l3.38-15.24h7.21c-2.75,12.97-5.46,25.78-8.21,38.72h-7.2l4.04-19.54h-7.91l-4.29,19.6h-7.16c2.49-11.8,4.94-23.44,7.44-35.31-5.7,1.89-7.68,5.92-7.43,14.28-3.38-.07-4.74-1.15-4.56-4.24,.1-1.78,.61-3.72,1.51-5.25,3.25-5.51,11.36-9.1,18.38-8.16Z"/>
                    <path class="g" d="M329.51,17.29c1.07,.97,1.68,1.61,2.38,2.15,1.5,1.16,1.83,2.69,1.44,4.44-.36,1.62-1.56,2.42-3.05,2.74-1.69,.36-3.24-.27-3.99-1.75-.75-1.48-1.76-1.72-3.21-1.8-2.26-.12-4.5-.49-7.26-.81-2.43,11.17-4.85,22.31-7.29,33.54h-7.15c2.43-11.46,4.83-22.81,7.23-34.15-6.91-1.87-12,3.7-10.44,13.27-3.57-.14-4.61-1.13-4.72-4.49-.17-5.31,2.5-9.47,7.55-11.76,5.01-2.27,10.3-2.14,15.55-1.54,4.42,.51,8.79,1.55,12.95,.16Z"/>
                    <path class="g" d="M269.48,20.38l7.33-.99-2.41,12.12c2.16-.58,4.25-1.5,6.38-1.63,3.34-.21,5.36,1.77,5.19,5.11-.15,3.07-.9,6.11-1.44,9.15-.23,1.32-.82,2.62-.83,3.92,0,1,.51,2.75,1.03,2.84,1.15,.21,2.56-.2,3.64-.79,.7-.38,.93-1.57,1.51-2.28,.43-.52,1.08-.85,1.64-1.27l.76,.65c-1.22,2.06-2.26,4.25-3.69,6.15-2.03,2.69-5.02,3.11-8.13,2.49-2.2-.44-3.8-2.31-3.61-4.77,.26-3.38,1.04-6.71,1.54-10.07,.23-1.53,.53-3.08,.43-4.61-.14-2.29-2.09-3.12-3.62-1.42-1.25,1.39-2.19,3.28-2.68,5.1-1.07,3.98-1.76,8.07-2.61,12.11-.23,1.11-.49,2.22-.77,3.53h-7.2c2.51-11.78,5.01-23.46,7.54-35.34Z"/>
                    <path class="g" d="M226.7,26.69c-2.23,.08-3.93-1.54-4.01-3.8-.08-2.31,1.43-4.02,3.64-4.14,2.25-.12,4.28,1.72,4.31,3.93,.03,2.03-1.84,3.94-3.95,4.01Z"/>
                </g>
            </g>
        </g>
    </g>
</svg>