<?xml version="1.0" encoding="UTF-8"?><svg xmlns="http://www.w3.org/2000/svg" viewBox="0 0 281.16 101.98"><defs><style>.d{fill:#fff;}.e{fill:#1c9ed7;}.f{fill:#06588b;}</style></defs><g id="a"/><g id="b"><g id="c"><g><path class="d" d="M234.8,84.71h3.2c-.54,2.54-1.11,4.98-1.56,7.45-.11,.59,.18,1.25,.28,1.87,.65-.24,1.49-.29,1.91-.74,1.71-1.86,2.33-4.19,2.51-6.64l-.43,.15c-.35-.53-.88-1.04-.96-1.61-.04-.29,.71-.94,1.16-.99,.94-.11,1.43,.62,1.45,1.48,.04,3.35-.68,6.48-3.02,9.02-.54,.58-1.3,1.05-2.05,1.32-2.83,1.01-4.71-.59-4.15-3.52,.49-2.56,1.09-5.11,1.66-7.78Z"/><path class="d" d="M225.62,96.13h-3.17c.81-3.84,1.6-7.6,2.4-11.41h3.12v1.06c.79-.38,1.48-.84,2.25-1.07,.83-.25,1.69,.06,1.85,.94,.11,.61-.14,1.45-.54,1.93-.45,.54-1.19,.6-1.72-.21-.23-.35-.81-.88-.92-.81-.55,.32-1.25,.74-1.41,1.27-.48,1.57-.74,3.2-1.08,4.81-.25,1.16-.51,2.31-.77,3.49Z"/><g><path class="d" d="M82.83,51.55c.7-.64,1.38-1.32,2.12-1.93,2.72-2.25,5.45-4.49,8.2-6.7,3.02-2.43,6.09-4.8,9.1-7.25,2.55-2.08,5-4.27,7.55-6.35,2.5-2.05,5.07-4,7.57-6.05,2.51-2.05,4.95-4.19,7.46-6.25,2.54-2.08,5.14-4.09,7.69-6.16,1.91-1.56,3.75-3.2,5.66-4.76,2.05-1.67,4.08-3.37,6.23-4.89,2.71-1.91,6.04-1.55,8.43,.95,3.55,3.72,6.96,7.56,10.46,11.33,1.39,1.49,2.25,1.48,3.75,.14,.66-.59,1.34-1.17,2.01-1.75,.89-.76,2.29-.54,3.46,.58,4.61,4.38,9.19,8.79,13.82,13.15,5.32,5.02,10.68,9.99,16.02,15,.73,.68,1.38,1.44,2.07,2.16l-.2,.34c-.64-.27-1.31-.49-1.92-.83-6.22-3.44-12.42-6.91-18.65-10.34-.71-.39-1.52-.6-2.62-1.02,.17,8.81,1.69,17.18,1.57,25.6l-.6,.22c-.57-.65-1.27-1.22-1.68-1.95-3.1-5.49-6.15-11-9.19-16.52-5.15-9.36-10.25-18.75-15.46-28.09-1.02-1.83-2.39-3.48-3.65-5.18-.23-.31-.73-.42-1.1-.62-.07,.45-.31,.95-.19,1.34,1.36,4.53,2.82,9.04,4.17,13.57,2.45,8.2,4.89,16.4,7.26,24.63,.41,1.43,.44,2.96,.64,4.45l-.55,.32c-.6-.69-1.29-1.33-1.79-2.09-3.33-5.11-6.62-10.26-9.93-15.39-1.73-2.67-3.43-5.36-5.26-7.96-.64-.91-1.63-1.58-2.46-2.35l-.52,.33c.04,.88,.02,1.77,.15,2.63,.12,.79,.47,1.55,.57,2.34,.12,.91,.07,1.84,.09,2.76-.96-.28-2.18-.3-2.84-.91-1.43-1.31-2.59-2.91-3.83-4.42-.37-.45-.62-.99-1.07-1.71-.7,.77-1.32,1.34-1.81,2.01-4.15,5.53-8.26,11.1-12.44,16.61-.56,.74-1.46,1.23-2.2,1.83-.28-.94-.73-1.86-.81-2.81-.2-2.62-.23-5.25-.37-7.88-.03-.57-.2-1.14-.31-1.7l-.43-.18c-.48,.58-1.07,1.11-1.42,1.76-1.94,3.55-4.89,6.01-8.39,7.85-7.7,4.05-15.44,8.05-23.16,12.06-.31,.16-.68,.23-1.02,.34l-.18-.31Z"/><path class="f" d="M100.79,61.82c6.56-2.97,13.44-5,20.55-5.97,6.11-.84,12.29-1.56,18.45-1.69,11.78-.25,23.3,1.66,34.58,5.12,7.97,2.44,16.15,3.66,24.51,3.17,6.12-.36,12.03-1.56,17.09-5.33,4.7-3.51,6.88-9.04,5.54-13.92-.73-2.68-1.86-4.03-5.58-6.81,3.44,1.06,6.23,3.02,8.26,6.05,3.85,5.76,3.17,13.88-1.5,19.3-5.35,6.21-12.3,9.37-20.19,10.64-3.19,.51-6.48,.82-9.69,.63-4.72-.27-9.39-1.13-13.89-2.71-6.41-2.25-12.77-4.63-19.27-6.57-4.89-1.46-9.95-2.37-14.96-3.4-6.72-1.38-13.54-2.09-20.39-1.71-5.11,.28-10.19,1.05-15.27,1.72-2.76,.36-5.49,.98-8.23,1.49Z"/><path d="M143.21,50.64c-4.14-.02-8.29-.29-12.41,0-7.76,.53-15.39,1.95-22.79,4.4-5.39,1.78-10.65,3.96-16.06,5.67-3.91,1.24-7.93,2.43-11.98,2.86-4.92,.52-9.94,.35-14.68-1.52-3.16-1.25-6.29-2.57-9.43-3.87-.17-.07-.31-.21-.45-.31,2.99,.32,5.97,.69,8.96,.95,7.3,.65,14.12-1.2,20.91-3.71,13.74-5.09,27.93-8,42.66-7.12,4.61,.27,9.17,1.33,13.74,2.06,.52,.08,1,.4,1.51,.61h.02Z"/><path class="e" d="M201.2,34.56c4.94-.03,9.46,1.09,13.1,4.5,3.85,3.61,4.39,8.98,1.21,13.18-3.61,4.77-8.59,6.94-14.53,6.95,2.15-1.36,4.37-2.53,6.33-4.05,5.22-4.06,6.29-10.39,2.72-15.42-1.98-2.79-4.81-4.21-8.1-4.86-.2-.04-.39-.06-.59-.1-.04,0-.06-.08-.15-.19Z"/><path class="d" d="M81.4,80c-.47,2.24-.9,4.33-1.33,6.41-.43,2.06-.9,4.12-1.26,6.2-.08,.44,.25,.95,.39,1.43,.57-.18,1.38-.18,1.68-.57,.89-1.14,1.86-2.17,2.19-3.78,.51-2.52,1.91-4.58,4.71-5.18,1.12-.24,2.47-.31,2.99,.75,.42,.85,.35,2.17,.01,3.1-.61,1.65-2.09,2.52-3.79,2.87-.8,.16-1.26,.46-1.17,1.34,.1,.92,.29,1.76,1.44,1.85,1.42,.11,2.59-.43,3.59-1.41,.36-.35,.78-.66,1.23-.91-1.08,2.67-3.57,4.2-6.32,4.13-2.26-.05-3.1-1.45-3.32-3.55-2.81,3.98-5.24,4.57-6.9,1.69-1.08,1.21-2.3,2.15-4.03,1.81-1.83-.35-2.26-1.76-2.41-3.69-.45,.71-.7,1.12-.96,1.52-.8,1.19-1.83,2.05-3.33,2.19-2.01,.18-3.24-.94-2.93-2.95,.41-2.67,1.03-5.31,1.6-7.95,.06-.26,.44-.6,.7-.62,.81-.08,1.63-.03,2.61-.03-.55,2.67-1.11,5.17-1.55,7.69-.09,.53,.22,1.13,.35,1.69,.62-.19,1.44-.19,1.82-.6,.99-1.05,1.96-2.09,2.21-3.72,.27-1.72,1.23-3.27,2.74-4.31,1.47-1.01,3.02-1.24,4.72-.13,.25-1.2,.54-2.33,.72-3.48,.16-1.07,.61-1.65,1.78-1.57,.52,.04,1.06-.12,1.82-.22Zm-9.29,12.1c.46,.7,.76,1.7,1.35,1.93,1.01,.38,1.77-.5,2.02-1.41,.5-1.81,.87-3.66,1.18-5.51,.18-1.04-.61-1.58-1.54-1.06-.53,.3-1.08,.8-1.32,1.34-.63,1.45-1.08,2.98-1.69,4.72Zm13.81-1.98l.47,.25c1.83-.48,3.03-1.72,3.16-3.44,.03-.42-.28-.88-.44-1.32-.39,.16-.98,.22-1.15,.51-.75,1.29-1.37,2.66-2.04,3.99Z"/><path class="d" d="M165.73,96.11c.77-3.67,1.5-7.21,2.29-10.74,.06-.28,.49-.64,.8-.69,1.69-.27,2.23-.08,2.61,.87,.23-.16,.44-.33,.68-.46,1.11-.64,2.3-.78,3.39-.09,1.09,.69,1.09,1.87,.89,2.98-.26,1.44-.72,2.85-.92,4.3-.08,.56,.32,1.19,.5,1.78,.61-.29,1.31-.48,1.82-.89,1.33-1.07,1.64-2.67,2.17-4.2,.75-2.14,1.97-4.02,4.51-4.32,.84-.1,1.73,.18,2.25,.24l3.85-.32c-.78,3.69-1.51,7.16-2.26,10.69,2.13-.09,2.23-2.32,3.6-3.11-.31,1.73-1.14,3.11-2.77,3.77-.9,.37-1.2,.94-1.39,1.8-.18,.84-.44,1.7-.86,2.45-.77,1.38-2.09,2.02-3.6,1.75-.75-.13-1.77-.71-1.99-1.33-.25-.7,.02-1.84,.49-2.48,.5-.68,1.51-.97,2.25-1.49,.41-.29,.74-.7,.99-1.16-3.63,1.87-5.5,.49-5.95-2.78-.3,.52-.48,.93-.75,1.27-.48,.61-.93,1.28-1.53,1.74-1.03,.79-2.25,.8-3.39,.24-1.13-.55-1.26-1.65-1.09-2.74,.22-1.4,.62-2.78,.8-4.18,.1-.83,.63-2.07-.6-2.37-1.17-.29-1.65,.86-1.88,1.79-.64,2.53-1.17,5.08-1.76,7.69h-3.17Zm16.38-4.04c.55,.78,.9,1.79,1.48,1.96,1.08,.31,1.7-.62,2.05-1.59,.09-.26,.17-.53,.22-.79,.27-1.25,.63-2.5,.77-3.77,.07-.62-.25-1.29-.39-1.93-.67,.3-1.66,.41-1.94,.92-.85,1.58-1.43,3.31-2.2,5.2Zm2.49,5.64l-.32-.24c-.58,.38-1.27,.67-1.7,1.18-.24,.29-.05,.94-.05,1.42,.46-.14,1.1-.13,1.32-.44,.39-.54,.51-1.27,.75-1.92Z"/><path class="d" d="M123.01,79.05c-2.06,5.54-4.08,10.99-6.15,16.43-.12,.31-.62,.62-.98,.67-.76,.1-1.55,.03-2.63,.03v-11.25l-.45-.05c-1.41,3.75-2.82,7.5-4.22,11.24h-3.43v-15.74c-2.74,.66-3.55,2.16-3.79,6.43-1.62-.05-2.54-1.16-1.93-2.72,.45-1.15,1.22-2.29,2.14-3.1,1.85-1.61,4.08-2.39,6.85-2.03v13.56l.39,.04c.55-1.58,1.09-3.15,1.64-4.73,.78-2.25,1.56-4.5,2.33-6.76q.79-2.31,3.63-2.11v13.55l.4,.06c.15-.34,.31-.68,.43-1.03,1.33-3.86,2.68-7.71,3.96-11.58,.3-.92,.72-1.34,1.82-.9Z"/><path class="d" d="M32.5,95.29c2.06-.19,2.32-2.27,3.6-3.19-.36,1.8-1.24,3.11-2.87,3.94-.51,.26-.92,.88-1.18,1.43-.35,.74-.41,1.6-.75,2.34-.69,1.52-2.18,2.42-3.81,2.1-.75-.15-1.78-.71-1.99-1.33-.25-.71,.03-1.85,.5-2.5,.5-.68,1.51-.97,2.25-1.49,.4-.28,.72-.68,.96-1.14-3.19,1.66-5.3,.9-5.98-2.77-.29,.48-.46,.91-.76,1.23-.66,.68-1.28,1.5-2.1,1.91-2.49,1.28-4.46,.01-4.13-2.75,.34-2.81,1.04-5.57,1.58-8.38h3.26c-.51,2.4-1.06,4.71-1.47,7.05-.13,.72-.11,1.96,.29,2.18,1,.57,1.58-.48,2.35-1.07,1.33-1.03,1.29-2.52,1.82-3.82,.89-2.2,2.06-4.18,4.74-4.43,.8-.07,1.64,.23,2.54,.38,.88-.82,2.11-.12,3.38-.39-.78,3.69-1.51,7.17-2.25,10.68Zm-6.2-3.23c.54,.8,.84,1.74,1.41,1.96,1,.37,1.65-.46,2.06-1.36,.11-.25,.19-.52,.25-.78,.3-1.38,.65-2.76,.84-4.15,.07-.57-.24-1.18-.37-1.78-.64,.25-1.61,.32-1.85,.78-.88,1.66-1.52,3.44-2.32,5.34Zm2.5,5.7l-.45-.3c-.59,.47-1.25,.87-1.72,1.44-.18,.21,.08,.79,.14,1.2,.4-.09,1.01-.04,1.16-.28,.4-.61,.6-1.36,.87-2.05Z"/><path class="d" d="M130.23,85.24c1.03-1.12,2.26-.37,3.54-.61-.54,2.61-1.05,5.06-1.56,7.51-.16,.76-.52,1.67,.45,2.05,1.04,.41,1.52-.45,2.01-1.22,.24-.37,.68-.6,1-.93,.47-.49,1.05-.94,1.34-1.52,.73-1.48,1.49-2.97,1.92-4.55,.38-1.37,1.13-1.86,2.42-1.85,.45,0,.9-.05,1.47-.08,.21,3.03,.41,5.99,.62,9.08l2.24-1.2c-1.04,1.78-4.47,4.13-6.05,4.3-2.36,.25-3.32-.3-4.21-2.28-1.09,.74-2.12,1.75-3.36,2.2-1.57,.56-2.24,.03-3.19-1.71-.56,.47-1.06,1.03-1.68,1.39-2.1,1.25-4.45,.13-4.69-2.34-.27-2.87,.54-5.47,2.59-7.57,1.5-1.53,3.57-1.75,5.12-.65Zm-4.91,6.79c.55,.78,.87,1.77,1.47,1.98,1,.36,1.63-.52,2.01-1.42,.11-.25,.19-.52,.25-.78,.29-1.34,.63-2.67,.82-4.02,.08-.59-.19-1.22-.3-1.83-.67,.25-1.69,.32-1.96,.8-.88,1.61-1.49,3.36-2.3,5.27Zm11.32,1.16l-.24,.47c.57,.3,1.2,.93,1.68,.83,.69-.15,1.77-.79,1.81-1.29,.16-1.93-.03-3.88-.08-5.83h-.39c-.47,1.04-.96,2.06-1.41,3.11-.11,.27-.23,.66-.12,.88,.65,1.36-.11,1.71-1.25,1.82Z"/><path class="d" d="M5.32,80.5c-2.5,.79-3.39,2.57-3.3,6.3-1.5-.02-2.08-.5-2.02-1.88,.04-.75,.24-1.56,.61-2.21,1.4-2.49,5.13-4.17,8.21-3.7l-1.36,6.66h3.5l1.51-6.73h3.19l-3.65,17.19h-3.19l1.76-8.52c-.2-.14-.24-.19-.28-.19-3.15-.29-3.14-.29-3.79,2.77-.4,1.88-.83,3.76-1.25,5.64-.02,.09-.09,.16-.16,.3H2.03l3.29-15.62Z"/><path class="d" d="M278.34,84.02c.19,3.08,.38,6.03,.58,9.12l2.04-1.11,.2,.33c-1.79,1.54-3.44,3.37-5.92,3.81-2.68,.47-3.86-.47-4.5-3.29-.41,.45-.77,.84-1.14,1.23-1.52,1.6-3.34,2.38-5.57,2.1-1.36-.17-2.25-.86-2.61-2.25-.96-3.74,1.64-8.67,5.02-9.42,1.17-.26,2.38-.29,3.15,.76,.76,1.03,.43,2.2-.13,3.26-.78,1.48-2.07,2.34-3.66,2.66-.95,.19-1.38,.56-1.25,1.55,.13,.98,.56,1.82,1.61,1.64,1.08-.19,2.12-.7,3.14-1.16,.68-.31,1.32-.74,1.89-1.22,.51-.43,1.03-.95,1.32-1.54,.72-1.48,1.47-2.98,1.91-4.55,.39-1.39,1.17-1.82,2.45-1.82,.41,0,.82-.05,1.46-.09Zm-3.07,3.37l-.33-.05c-.39,.86-.79,1.71-1.15,2.58-.19,.45-.56,1.04-.41,1.37,.64,1.39-.13,1.78-1.27,1.97,.12,1.05,.74,1.4,1.63,1.3,1.09-.12,1.82-.75,1.81-1.87-.02-1.77-.18-3.54-.28-5.31Zm-10.37,2.92c1.99,.1,3.44-2.21,3.41-3.68,0-.35-.25-.8-.53-.98-.18-.12-.72,.09-.94,.31-1.2,1.2-1.7,2.71-1.95,4.36Z"/><path class="d" d="M56.48,96.11c-.31,.02-.57,.06-.84,.06-.68,0-1.37,0-2.29,0,1.09-5.15,2.16-10.18,3.22-15.21-3.24-.84-5.11,1.58-4.65,5.89-1.57-.07-2.03-.52-2.08-2.01-.09-3.35,2.55-5.83,6.55-5.95,1.73-.05,3.47,.2,5.21,.27,1.23,.04,2.46-.02,3.68,0,1.17,.02,1.81,.85,2.2,1.75,.35,.82,.07,1.64-.82,2.08-1,.49-1.72,.12-2.39-.7-.27-.33-.77-.46-1.18-.66-.11-.06-.27-.02-.41-.03-.97-.04-2.27-.47-2.83-.01-.62,.51-.59,1.84-.81,2.82-.78,3.58-1.53,7.16-2.3,10.74-.07,.31-.17,.61-.27,.94Z"/><path class="d" d="M204.61,90.3c-1.26,.21-2.23,.65-2.49,1.94-.3,1.5,.46,2.63,1.86,2.84,1.45,.21,3.14-.96,3.1-2.43-.03-1.12-.42-2.33-.99-3.31-.73-1.26-1.84-2.28-2.7-3.47-1.58-2.19-1.54-4.18,.04-5.72,1.7-1.66,5.22-2.08,6.84-.56,.67,.62,1.12,1.82,1.12,2.75,0,1.53-1.35,2.02-2.81,1.13,.2-.38,.45-.75,.59-1.15,.34-.93,.34-1.82-.65-2.4-.87-.52-2.05-.17-2.64,.75-.7,1.11-.55,2.23,.16,3.23,.66,.93,1.52,1.72,2.19,2.65,.77,1.07,1.68,2.14,2.08,3.35,.99,3.06-1.12,6.09-4.51,6.53-1.24,.16-2.62,.1-3.78-.3-2.78-.94-3.4-4.69-1.19-6.47,1.3-1.05,2.85-.82,3.77,.67Z"/><path class="d" d="M151.99,80c-.38,1.9-.73,3.67-1.06,5.32,1-.24,1.98-.63,2.97-.68,1.35-.06,2.24,.79,2.13,2.13-.14,1.77-.55,3.52-.85,5.27-.13,.75-.55,1.63,.48,2,.95,.33,1.51-.32,1.96-1.1,.2-.35,.55-.62,.93-.83-.58,2.86-2.1,4.25-4.29,4.12-1.45-.09-2.35-.91-2.26-2.37,.08-1.36,.43-2.7,.65-4.06,.12-.72,.28-1.45,.27-2.17,0-.34-.31-.9-.57-.97-.36-.09-1.02,.07-1.19,.35-.48,.76-.91,1.6-1.12,2.46-.54,2.18-.95,4.39-1.42,6.64h-3.2c.65-3.12,1.3-6.23,1.95-9.34,.35-1.66,.75-3.31,1.04-4.98,.18-1.07,.61-1.65,1.78-1.57,.53,.04,1.07-.12,1.81-.22Z"/><path class="d" d="M39.06,96.11h-3.21c1.07-5.01,2.1-9.94,3.2-14.85,.09-.39,.64-.82,1.07-.95,.68-.21,1.43-.2,2.34-.3l-1.09,5.4c.88-.28,1.69-.7,2.54-.78,1.76-.17,2.76,.74,2.61,2.51-.14,1.68-.67,3.32-.87,5-.08,.61,.07,1.61,.47,1.84,.76,.46,1.43-.14,1.88-.89,.23-.39,.56-.73,.97-1-.43,2.82-2.1,4.32-4.35,4.13-1.33-.11-2.2-.88-2.13-2.2,.08-1.45,.43-2.89,.65-4.34,.1-.68,.25-1.36,.23-2.04,0-.35-.28-.92-.53-.98-.36-.09-1.01,.06-1.2,.34-.48,.7-.9,1.5-1.1,2.32-.55,2.22-.97,4.48-1.46,6.8Z"/><path class="d" d="M245.6,84.71h3.19c-.52,2.54-1.02,4.98-1.52,7.43-.14,.7-.57,1.67,.42,1.83,.63,.11,1.44-.48,2.08-.89,1.47-.94,1.58-2.62,2.09-4.09,.83-2.39,2.28-4.2,4.99-4.56,2.02-.27,3.25,.82,2.94,2.55-.17,.94-.66,1.37-1.68,.93,0-.15,.02-.29,0-.41-.12-.63-.25-1.25-.38-1.88-.56,.38-1.32,.65-1.65,1.18-1.12,1.78-1.64,3.77-1.57,5.89,.05,1.32,.64,1.99,1.89,1.71,1.11-.25,2.13-.93,3.16-1.47,.39-.21,.7-.58,1.11-.79-1.15,2.89-4.15,4.56-7.01,4.05-1.43-.26-2-.97-2.66-3.45-.27,.42-.42,.79-.69,1.04-.82,.77-1.57,1.75-2.55,2.18-2.43,1.07-4.31-.47-3.84-3.08,.48-2.7,1.11-5.37,1.69-8.16Z"/><path class="d" d="M222.29,92.04c-.89,2.96-4.42,4.86-7.17,4.08-1.28-.36-2.04-1.26-2.15-2.57-.24-2.72,.45-5.2,2.2-7.32,1.1-1.33,2.57-1.91,4.28-1.79,1.65,.12,2.38,1.09,2.1,2.71-.41,2.34-1.97,3.57-4.14,4.07-.96,.22-1.32,.59-1.21,1.56,.11,1.02,.61,1.84,1.61,1.62,1.2-.26,2.33-.89,3.45-1.44,.4-.19,.7-.61,1.04-.92Zm-6-1.91c2.32-.2,3.55-1.54,3.58-3.3,0-.4-.24-.81-.37-1.21-.43,.19-1.06,.26-1.25,.59-.73,1.26-1.31,2.61-1.95,3.92Z"/><path class="d" d="M166.08,92.25c-.77,2.55-2.43,3.99-4.59,3.99-1.48,0-2.37-.74-2.37-2.23,0-1.22,.22-2.45,.45-3.66,.35-1.88,.79-3.74,1.2-5.64h3.17c-.47,2.28-.93,4.49-1.38,6.7-.06,.31-.2,.64-.17,.94,.07,.57,.24,1.13,.37,1.7,.65-.22,1.37-.34,1.93-.71,.46-.29,.73-.88,1.08-1.34l.31,.25Z"/><path class="d" d="M162.97,79.68c1.13,.07,1.72,.7,1.84,1.72,.11,.95-.84,1.87-1.83,1.81-1.07-.07-1.69-.66-1.67-1.77,.01-1.1,.63-1.65,1.66-1.76Z"/><path class="d" d="M20.12,83.24c-1.02-.15-1.69-.66-1.68-1.77,.01-1.08,.59-1.71,1.69-1.76,1-.05,1.92,.85,1.82,1.81-.11,1.05-.75,1.62-1.83,1.72Z"/><path class="d" d="M249.62,81.62c-.02,.91-.62,1.53-1.68,1.58-1.09,.05-1.7-.63-1.83-1.65-.13-.97,.78-1.86,1.78-1.85,1,0,1.71,.72,1.73,1.92Z"/></g></g></g></g></svg>