<?xml version="1.0" encoding="UTF-8"?><svg xmlns="http://www.w3.org/2000/svg" viewBox="0 0 375.16 70.94"><defs><style>.d,.e{fill:#fff;}.f{fill:#1278b1;}.g{fill:#1c9ed7;}.h{fill:#06588b;}.e{stroke:#02598c;stroke-miterlimit:10;}</style></defs><g id="a"/><g id="b"><g id="c"><g><path class="d" d="M26.62,50.06c.68-.62,1.34-1.28,2.06-1.87,2.64-2.18,5.29-4.36,7.96-6.5,2.93-2.36,5.92-4.66,8.83-7.04,2.47-2.02,4.86-4.14,7.33-6.17,2.42-1.99,4.92-3.89,7.35-5.87,2.44-1.99,4.8-4.07,7.24-6.07,2.47-2.02,4.99-3.97,7.46-5.98,1.86-1.51,3.64-3.11,5.5-4.62,1.99-1.62,3.96-3.27,6.05-4.75,2.64-1.86,5.87-1.51,8.19,.93,3.45,3.61,6.76,7.34,10.16,11,1.35,1.45,2.19,1.44,3.64,.14,.64-.57,1.3-1.13,1.95-1.69,.87-.74,2.22-.52,3.36,.56,4.47,4.26,8.93,8.53,13.42,12.77,5.17,4.87,10.37,9.7,15.55,14.56,.71,.66,1.34,1.4,2.01,2.1l-.19,.33c-.62-.27-1.28-.48-1.87-.81-6.04-3.34-12.06-6.71-18.11-10.04-.69-.38-1.48-.58-2.54-.99,.17,8.56,1.64,16.68,1.53,24.86l-.58,.22c-.55-.63-1.23-1.18-1.63-1.9-3.01-5.33-5.97-10.68-8.92-16.04-5-9.09-9.96-18.21-15.01-27.27-.99-1.78-2.32-3.38-3.55-5.03-.22-.3-.71-.41-1.07-.6-.07,.44-.3,.92-.19,1.3,1.32,4.4,2.73,8.77,4.05,13.18,2.38,7.96,4.75,15.93,7.05,23.91,.4,1.38,.42,2.88,.62,4.32l-.53,.31c-.58-.67-1.26-1.29-1.74-2.03-3.24-4.97-6.43-9.96-9.65-14.94-1.68-2.59-3.33-5.2-5.1-7.72-.62-.88-1.58-1.53-2.39-2.28l-.5,.32c.04,.85,.02,1.72,.14,2.56,.11,.77,.46,1.51,.56,2.28,.11,.88,.07,1.78,.09,2.68-.94-.28-2.11-.29-2.76-.88-1.39-1.27-2.52-2.82-3.72-4.29-.36-.43-.61-.96-1.04-1.66-.68,.75-1.28,1.31-1.76,1.95-4.03,5.37-8.02,10.78-12.08,16.13-.55,.72-1.41,1.19-2.13,1.78-.27-.91-.71-1.8-.78-2.73-.2-2.54-.23-5.1-.36-7.65-.03-.55-.2-1.1-.3-1.65l-.42-.17c-.47,.57-1.04,1.08-1.38,1.71-1.88,3.45-4.75,5.84-8.15,7.63-7.48,3.94-14.99,7.82-22.49,11.71-.31,.16-.66,.22-.99,.33l-.18-.3Z"/><path class="f" d="M44.06,60.02c6.37-2.88,13.05-4.85,19.96-5.8,5.94-.81,11.93-1.51,17.91-1.64,11.44-.25,22.62,1.61,33.58,4.97,7.73,2.37,15.68,3.56,23.8,3.08,5.95-.35,11.68-1.51,16.6-5.17,4.57-3.4,6.68-8.77,5.38-13.52-.71-2.6-1.81-3.91-5.42-6.61,3.34,1.03,6.05,2.93,8.02,5.87,3.73,5.59,3.08,13.47-1.45,18.74-5.19,6.03-11.95,9.09-19.6,10.33-3.09,.5-6.29,.8-9.41,.62-4.58-.27-9.11-1.1-13.49-2.63-6.22-2.18-12.4-4.5-18.71-6.38-4.75-1.41-9.66-2.3-14.53-3.3-6.53-1.34-13.15-2.03-19.8-1.66-4.96,.27-9.9,1.02-14.83,1.67-2.68,.35-5.33,.95-8,1.44Z"/><path class="h" d="M85.24,49.17c-4.02-.02-8.05-.28-12.05,0-7.53,.51-14.94,1.89-22.12,4.27-5.23,1.73-10.34,3.84-15.6,5.5-3.8,1.2-7.7,2.36-11.63,2.78-4.77,.51-9.65,.34-14.26-1.48-3.07-1.21-6.1-2.5-9.15-3.76-.17-.07-.3-.21-.44-.3,2.91,.31,5.8,.67,8.7,.93,7.09,.63,13.71-1.16,20.3-3.6,13.34-4.94,27.12-7.76,41.42-6.92,4.47,.27,8.9,1.29,13.34,2,.51,.08,.98,.39,1.46,.6h.02Z"/><path class="g" d="M141.55,33.55c4.8-.03,9.19,1.06,12.72,4.37,3.74,3.5,4.26,8.71,1.17,12.79-3.5,4.63-8.34,6.73-14.11,6.75,2.08-1.32,4.25-2.46,6.15-3.94,5.07-3.94,6.1-10.09,2.64-14.98-1.92-2.71-4.67-4.09-7.86-4.72-.19-.04-.38-.06-.57-.1-.04,0-.06-.07-.14-.19Z"/><path class="h" d="M85.22,49.18l.22,.11c-.06-.04-.13-.08-.19-.12h-.02Z"/><g><path class="e" d="M188.41,18.45c-2.31,.97-4.09,2.41-5.34,4.32s-1.87,4.23-1.87,6.96c0,1.11,.13,1.96,.38,2.56,.07,.22,.15,.41,.25,.58,.07,.12,.1,.23,.1,.35-1.84,0-3.21-.37-4.09-1.1-.94-.79-1.41-2.08-1.41-3.89,0-1.1,.24-2.21,.72-3.31s1.16-2.17,2.05-3.19c.85-.99,1.86-1.9,3.01-2.74,1.16-.84,2.41-1.57,3.77-2.19,2.88-1.29,5.71-1.93,8.49-1.93,.77,0,1.46,.03,2.06,.1l-3.29,15.32h7.56l3.29-15.32h7.41l-8.16,38.48h-7.41l4.12-19.34h-7.56l-4.12,19.34h-7.41l7.46-34.98Z"/><path class="e" d="M212.86,52.28c-1.07-1.07-1.61-2.64-1.61-4.7,0-.97,.13-2.09,.4-3.37l3.49-16.5h7.41l-3.69,17.48c-.13,.44-.2,.99-.2,1.66,0,.7,.16,1.2,.49,1.48,.33,.28,.86,.43,1.59,.43,.5,0,.99-.11,1.47-.34,.48-.23,.92-.54,1.32-.94,.82-.82,1.44-1.91,1.86-3.27h2.16c-.92,2.6-2.08,4.66-3.47,6.2-1.17,1.26-2.49,2.16-3.97,2.71-1.07,.4-2.19,.6-3.37,.6-1.64,0-2.94-.49-3.89-1.46Zm5.8-27.66c-.5-.21-.94-.5-1.31-.87-.37-.35-.66-.78-.87-1.28-.21-.5-.31-1.03-.31-1.58s.1-1.08,.31-1.58,.5-.95,.87-1.33c.37-.39,.8-.68,1.31-.89,.5-.21,1.03-.31,1.58-.31s1.08,.1,1.58,.31,.95,.51,1.33,.89,.68,.83,.89,1.33,.31,1.03,.31,1.58-.1,1.08-.31,1.58c-.21,.5-.51,.93-.89,1.28-.39,.37-.83,.66-1.33,.87-.5,.21-1.03,.31-1.58,.31s-1.08-.1-1.58-.31Z"/><path class="e" d="M233.88,65.98c-.69-.21-1.29-.52-1.8-.94-.54-.42-.95-.94-1.26-1.57-.3-.63-.45-1.35-.45-2.17,0-1.94,.91-3.61,2.74-5,1.37-1.02,3.26-1.91,5.65-2.66l.63-2.71c-1.76,1.88-3.82,2.81-6.18,2.81-1.96,0-3.54-.61-4.75-1.83-1.41-1.44-2.11-3.58-2.11-6.43,0-1.21,.12-2.48,.36-3.82,.24-1.34,.6-2.66,1.07-3.97,1.07-2.95,2.54-5.32,4.4-7.13,2.14-2.06,4.61-3.09,7.41-3.09,1.39,0,2.43,.24,3.13,.72s1.04,1.11,1.04,1.9v.3l.55-2.66h7.41l-5.1,23.86c1.62-.54,2.92-1.34,3.89-2.41,1.05-1.16,1.92-2.8,2.59-4.95h2.16c-.92,3.05-2.29,5.4-4.12,7.06-1.34,1.21-3,2.06-4.97,2.56l-.78,3.72c-.65,3.28-1.96,5.66-3.92,7.13-1.42,1.07-3.21,1.61-5.35,1.61-.8,0-1.55-.1-2.25-.31Zm2.73-4.83c.57-.74,1.01-1.88,1.33-3.44l.3-1.48c-1.56,.59-2.72,1.18-3.49,1.78-1.02,.77-1.53,1.63-1.53,2.59,0,.45,.14,.83,.43,1.13,.32,.37,.75,.55,1.31,.55s1.09-.38,1.66-1.13Zm2.29-13.41c.89-.77,1.48-1.77,1.78-2.99l2.61-12.18c0-.17-.04-.36-.11-.58s-.18-.42-.31-.6c-.4-.49-.96-.73-1.68-.73s-1.35,.23-2,.68c-.65,.45-1.25,1.08-1.82,1.88-1,1.46-1.83,3.36-2.49,5.7-.3,1.04-.53,2.06-.68,3.08-.15,1.01-.23,1.93-.23,2.75,0,1.71,.32,2.86,.95,3.47,.22,.23,.46,.39,.73,.45,.27,.07,.57,.1,.9,.1,.74,0,1.52-.34,2.34-1.03Z"/><path class="e" d="M268.59,51.93c-.89-1.04-1.33-2.37-1.33-3.99,0-.77,.1-1.67,.29-2.69,.19-1.02,.48-2.34,.87-3.94,.38-1.64,.67-2.95,.87-3.93s.29-1.83,.29-2.55c0-1.76-.62-2.64-1.86-2.64-.87,0-1.67,.46-2.41,1.38-.62,.79-1.16,1.91-1.61,3.37l-3.49,16.5h-7.41l7.46-34.98,7.61-1.03-2.76,12.96c1-1.12,2.08-1.91,3.24-2.36,.85-.33,1.77-.5,2.76-.5,1.74,0,3.11,.45,4.12,1.36,1.07,.99,1.61,2.47,1.61,4.45,0,1.19-.22,2.74-.65,4.65-.12,.55-.31,1.38-.58,2.49-.49,1.86-.84,3.34-1.05,4.45-.13,.7-.2,1.27-.2,1.71,0,.69,.15,1.22,.46,1.59,.31,.38,.84,.56,1.59,.56,1.02,0,1.88-.42,2.59-1.26,.54-.64,1.11-1.73,1.73-3.29h2.16c-1.27,3.77-2.88,6.4-4.82,7.91-1.37,1.07-2.96,1.61-4.75,1.61-2.13,0-3.7-.6-4.72-1.81Z"/><path class="e" d="M297.74,19.38h-.6c-3.05,0-5.34,.69-6.88,2.08-1.86,1.67-2.79,4.45-2.79,8.31,0,1.07,.12,1.93,.35,2.56,.07,.22,.15,.41,.25,.58,.07,.12,.1,.23,.1,.35-1.86,0-3.21-.37-4.07-1.1-.95-.8-1.43-2.09-1.43-3.87s.33-3.46,.99-5.06c.66-1.6,1.67-3,3.03-4.21,1.46-1.31,3.31-2.32,5.56-3.04,2.25-.72,4.91-1.08,7.97-1.08,1.76,0,3.44,.1,5.05,.3,.5,.05,1.16,.14,1.96,.28,1.34,.25,2.63,.42,3.87,.5,.6,.07,1.36,.1,2.29,.1,1.14,0,2.23-.1,3.27-.3,1.04-.2,1.94-.46,2.71-.78-.08,2.24-.66,3.89-1.72,4.95s-2.63,1.58-4.71,1.58c-1.12,0-2.25-.09-3.39-.28-1.14-.18-2.67-.47-4.6-.85l-7.11,33.03h-7.38l7.28-34.06Z"/><path class="e" d="M309.96,52.28c-1.07-1.07-1.61-2.64-1.61-4.7,0-.97,.13-2.09,.4-3.37l3.49-16.5h7.41l-3.69,17.48c-.13,.44-.2,.99-.2,1.66,0,.7,.16,1.2,.49,1.48,.33,.28,.86,.43,1.59,.43,.5,0,.99-.11,1.47-.34,.48-.23,.92-.54,1.32-.94,.82-.82,1.44-1.91,1.86-3.27h2.16c-.92,2.6-2.08,4.66-3.47,6.2-1.17,1.26-2.49,2.16-3.97,2.71-1.07,.4-2.19,.6-3.37,.6-1.64,0-2.94-.49-3.89-1.46Zm5.8-27.66c-.5-.21-.94-.5-1.31-.87-.37-.35-.66-.78-.87-1.28-.21-.5-.31-1.03-.31-1.58s.1-1.08,.31-1.58,.5-.95,.87-1.33c.37-.39,.8-.68,1.31-.89,.5-.21,1.03-.31,1.58-.31s1.08,.1,1.58,.31,.95,.51,1.33,.89,.68,.83,.89,1.33,.31,1.03,.31,1.58-.1,1.08-.31,1.58c-.21,.5-.51,.93-.89,1.28-.39,.37-.83,.66-1.33,.87-.5,.21-1.03,.31-1.58,.31s-1.08-.1-1.58-.31Z"/><path class="e" d="M325.57,51.91c-1.41-1.44-2.11-3.58-2.11-6.43,0-1.21,.12-2.48,.36-3.82,.24-1.34,.6-2.66,1.07-3.97,1.07-2.95,2.54-5.32,4.4-7.13,2.14-2.06,4.61-3.09,7.41-3.09,1.39,0,2.43,.24,3.13,.72s1.04,1.11,1.04,1.9v.2l2.51-11.83,7.61-1.03-5.9,27.78c-.15,.5-.23,1.06-.23,1.66,0,.7,.17,1.2,.5,1.48,.33,.28,.87,.43,1.61,.43,.95,0,1.81-.43,2.56-1.28,.64-.75,1.17-1.84,1.61-3.27h2.16c-.9,2.58-2.02,4.61-3.34,6.1-1.12,1.24-2.37,2.1-3.74,2.59-.99,.35-2.07,.53-3.24,.53-1.42,0-2.57-.38-3.44-1.13-.87-.75-1.41-1.85-1.61-3.29-.92,1.39-1.92,2.46-2.99,3.21-1.39,1-2.93,1.51-4.62,1.51-1.96,0-3.54-.61-4.75-1.83Zm9.28-3.42c.43-.18,.83-.44,1.22-.78,.9-.82,1.51-1.89,1.81-3.21v-.28l2.51-11.78c-.12-.47-.28-.85-.5-1.13-.35-.44-.89-.65-1.61-.65s-1.35,.23-2,.68c-.65,.45-1.25,1.08-1.82,1.88-1,1.46-1.83,3.36-2.49,5.7-.3,1.04-.53,2.06-.68,3.08-.15,1.01-.23,1.93-.23,2.75,0,1.71,.32,2.86,.95,3.47,.22,.23,.46,.39,.73,.45,.27,.07,.57,.1,.9,.1,.37,0,.77-.09,1.19-.28Z"/><path class="e" d="M354.29,51.83c-1.46-1.36-2.19-3.44-2.19-6.25,0-1.05,.1-2.23,.31-3.52,.21-1.29,.52-2.58,.94-3.87,.47-1.44,1.07-2.8,1.8-4.09,.73-1.29,1.58-2.43,2.55-3.42,2.24-2.28,5.01-3.42,8.29-3.42,2.09,0,3.62,.5,4.57,1.51,.74,.79,1.1,1.93,1.1,3.42s-.32,2.83-.95,4.11c-.64,1.28-1.52,2.42-2.64,3.4-1.12,.97-2.39,1.75-3.82,2.32-1.42,.58-2.9,.92-4.42,1.02-.08,.87-.13,1.56-.13,2.06,0,1.67,.32,2.83,.95,3.47,.55,.57,1.47,.85,2.76,.85,1.86,0,3.56-.5,5.1-1.51,.65-.42,1.28-.92,1.88-1.49,.6-.58,1.31-1.31,2.11-2.2h1.76c-1.62,2.75-3.49,4.93-5.6,6.56-2.6,1.98-5.44,2.96-8.54,2.96-2.53,0-4.48-.64-5.85-1.91Zm8.74-12.08c.9-.49,1.71-1.12,2.41-1.91,.7-.8,1.26-1.7,1.66-2.7s.6-2.01,.6-3.05c0-.69-.1-1.21-.29-1.57-.19-.36-.52-.54-.99-.54-.62,0-1.24,.3-1.87,.9-.63,.6-1.23,1.43-1.82,2.49-.54,.99-1.02,2.11-1.46,3.37-.44,1.26-.78,2.54-1.03,3.84,.95-.07,1.88-.34,2.79-.83Z"/></g></g></g></g></svg>