<?xml version="1.0" encoding="UTF-8"?><svg xmlns="http://www.w3.org/2000/svg" viewBox="0 0 282.53 103.84"><defs><style>.d,.e{fill:#fff;}.f{fill:#1c9ed7;}.g{fill:#06588b;}.e{stroke:#02598c;stroke-miterlimit:10;stroke-width:.25px;}</style></defs><g id="a"/><g id="b"><g id="c"><g><path class="d" d="M83.92,51.55c.7-.64,1.38-1.32,2.12-1.93,2.72-2.25,5.45-4.49,8.2-6.7,3.02-2.43,6.09-4.8,9.1-7.25,2.55-2.08,5-4.27,7.55-6.35,2.5-2.05,5.07-4,7.57-6.05,2.51-2.05,4.95-4.19,7.46-6.25,2.54-2.08,5.14-4.09,7.69-6.16,1.91-1.56,3.75-3.2,5.66-4.76,2.05-1.67,4.08-3.37,6.23-4.89,2.71-1.91,6.04-1.55,8.43,.95,3.55,3.72,6.96,7.56,10.46,11.33,1.39,1.49,2.25,1.48,3.75,.14,.66-.59,1.34-1.17,2.01-1.75,.89-.76,2.29-.54,3.46,.58,4.61,4.38,9.19,8.79,13.82,13.15,5.32,5.02,10.68,9.99,16.02,15,.73,.68,1.38,1.44,2.07,2.16l-.2,.34c-.64-.27-1.31-.49-1.92-.83-6.22-3.44-12.42-6.91-18.65-10.34-.71-.39-1.52-.6-2.62-1.02,.17,8.81,1.69,17.18,1.57,25.6l-.6,.22c-.57-.65-1.27-1.22-1.68-1.95-3.1-5.49-6.15-11-9.19-16.52-5.15-9.36-10.25-18.75-15.46-28.09-1.02-1.83-2.39-3.48-3.65-5.18-.23-.31-.73-.42-1.1-.62-.07,.45-.31,.95-.19,1.34,1.36,4.53,2.82,9.04,4.17,13.57,2.45,8.2,4.89,16.4,7.26,24.63,.41,1.43,.44,2.96,.64,4.45l-.55,.32c-.6-.69-1.29-1.33-1.79-2.09-3.33-5.11-6.62-10.26-9.93-15.39-1.73-2.67-3.43-5.36-5.26-7.96-.64-.91-1.63-1.58-2.46-2.35l-.52,.33c.04,.88,.02,1.77,.15,2.63,.12,.79,.47,1.55,.57,2.34,.12,.91,.07,1.84,.09,2.76-.96-.28-2.18-.3-2.84-.91-1.43-1.31-2.59-2.91-3.83-4.42-.37-.45-.62-.99-1.07-1.71-.7,.77-1.32,1.34-1.81,2.01-4.15,5.53-8.26,11.1-12.44,16.61-.56,.74-1.46,1.23-2.2,1.83-.28-.94-.73-1.86-.81-2.81-.2-2.62-.23-5.25-.37-7.88-.03-.57-.2-1.14-.31-1.7l-.43-.18c-.48,.58-1.07,1.11-1.42,1.76-1.94,3.55-4.89,6.01-8.39,7.85-7.7,4.05-15.44,8.05-23.16,12.06-.31,.16-.68,.23-1.02,.34l-.18-.31Z"/><path class="g" d="M101.89,61.82c6.56-2.97,13.44-5,20.55-5.97,6.11-.84,12.29-1.56,18.45-1.69,11.78-.25,23.3,1.66,34.58,5.12,7.97,2.44,16.15,3.66,24.51,3.17,6.12-.36,12.03-1.56,17.09-5.33,4.7-3.51,6.88-9.04,5.54-13.92-.73-2.68-1.86-4.03-5.58-6.81,3.44,1.06,6.23,3.02,8.26,6.05,3.85,5.76,3.17,13.88-1.5,19.3-5.35,6.21-12.3,9.37-20.19,10.64-3.19,.51-6.48,.82-9.69,.63-4.72-.27-9.39-1.13-13.89-2.71-6.41-2.25-12.77-4.63-19.27-6.57-4.89-1.46-9.95-2.37-14.96-3.4-6.72-1.38-13.54-2.09-20.39-1.71-5.11,.28-10.19,1.05-15.27,1.72-2.76,.36-5.49,.98-8.23,1.49Z"/><path d="M144.3,50.64c-4.14-.02-8.29-.29-12.41,0-7.76,.53-15.39,1.95-22.79,4.4-5.39,1.78-10.65,3.96-16.06,5.67-3.91,1.24-7.93,2.43-11.98,2.86-4.92,.52-9.94,.35-14.68-1.52-3.16-1.25-6.29-2.57-9.43-3.87-.17-.07-.31-.21-.45-.31,2.99,.32,5.97,.69,8.96,.95,7.3,.65,14.12-1.2,20.91-3.71,13.74-5.09,27.93-8,42.66-7.12,4.61,.27,9.17,1.33,13.74,2.06,.52,.08,1,.4,1.51,.61h.02Z"/><path class="f" d="M202.3,34.56c4.94-.03,9.46,1.09,13.1,4.5,3.85,3.61,4.39,8.98,1.21,13.18-3.61,4.77-8.59,6.94-14.53,6.95,2.15-1.36,4.37-2.53,6.33-4.05,5.22-4.06,6.29-10.39,2.72-15.42-1.98-2.79-4.81-4.21-8.1-4.86-.2-.04-.39-.06-.59-.1-.04,0-.06-.08-.15-.19Z"/><g><path class="e" d="M5.95,80.47c-1.12,.47-1.99,1.17-2.59,2.1-.61,.93-.91,2.06-.91,3.38,0,.54,.06,.95,.18,1.25,.03,.11,.07,.2,.12,.28,.03,.06,.05,.11,.05,.17-.9,0-1.56-.18-1.99-.54-.46-.38-.68-1.01-.68-1.89,0-.54,.12-1.07,.35-1.61,.23-.54,.56-1.05,.99-1.55,.42-.48,.9-.92,1.46-1.33,.56-.41,1.17-.76,1.83-1.06,1.4-.63,2.77-.94,4.13-.94,.37,0,.71,.02,1,.05l-1.6,7.45h3.67l1.6-7.45h3.6l-3.97,18.7h-3.6l2-9.4h-3.67l-2,9.4H2.32l3.63-17Z"/><path class="e" d="M17.46,96.91c-.52-.52-.78-1.28-.78-2.28,0-.47,.07-1.02,.2-1.64l1.7-8.02h3.6l-1.79,8.5c-.07,.21-.1,.48-.1,.81,0,.34,.08,.58,.24,.72,.16,.14,.42,.21,.78,.21,.24,0,.48-.05,.71-.17,.23-.11,.45-.26,.64-.46,.4-.4,.7-.93,.9-1.59h1.05c-.45,1.26-1.01,2.27-1.68,3.02-.57,.61-1.21,1.05-1.93,1.32-.52,.2-1.07,.29-1.64,.29-.8,0-1.43-.24-1.89-.71Zm2.82-13.45c-.24-.1-.46-.24-.63-.42-.18-.17-.32-.38-.42-.62-.1-.24-.15-.5-.15-.77s.05-.52,.15-.77c.1-.24,.24-.46,.42-.65,.18-.19,.39-.33,.63-.43,.24-.1,.5-.15,.77-.15s.52,.05,.77,.15c.24,.1,.46,.25,.65,.43,.19,.19,.33,.4,.43,.65,.1,.24,.15,.5,.15,.77s-.05,.52-.15,.77c-.1,.24-.25,.45-.43,.62-.19,.18-.4,.32-.65,.42-.24,.1-.5,.15-.77,.15s-.52-.05-.77-.15Z"/><path class="e" d="M27.3,103.57c-.34-.1-.63-.25-.87-.46-.26-.2-.46-.46-.61-.76-.15-.31-.22-.66-.22-1.06,0-.94,.44-1.75,1.33-2.43,.67-.5,1.58-.93,2.75-1.29l.31-1.32c-.85,.91-1.86,1.37-3,1.37-.95,0-1.72-.3-2.31-.89-.68-.7-1.03-1.74-1.03-3.12,0-.59,.06-1.2,.18-1.86,.12-.65,.29-1.29,.52-1.93,.52-1.43,1.23-2.59,2.14-3.47,1.04-1,2.24-1.5,3.6-1.5,.68,0,1.18,.12,1.52,.35,.34,.23,.51,.54,.51,.92v.15l.27-1.29h3.6l-2.48,11.6c.79-.26,1.42-.65,1.89-1.17,.51-.56,.93-1.36,1.26-2.4h1.05c-.45,1.48-1.12,2.62-2,3.43-.65,.59-1.46,1-2.42,1.25l-.38,1.81c-.32,1.59-.95,2.75-1.9,3.47-.69,.52-1.56,.78-2.6,.78-.39,0-.75-.05-1.09-.15Zm1.32-2.35c.28-.36,.49-.92,.65-1.67l.15-.72c-.76,.28-1.32,.57-1.7,.87-.5,.37-.74,.79-.74,1.26,0,.22,.07,.4,.21,.55,.15,.18,.37,.27,.63,.27s.53-.18,.81-.55Zm1.11-6.52c.43-.37,.72-.86,.87-1.45l1.27-5.92c0-.08-.02-.17-.06-.28-.04-.11-.09-.2-.15-.29-.2-.24-.47-.35-.82-.35s-.66,.11-.97,.33c-.31,.22-.61,.52-.89,.92-.49,.71-.89,1.63-1.21,2.77-.15,.5-.26,1-.33,1.5-.07,.49-.11,.94-.11,1.34,0,.83,.15,1.39,.46,1.68,.11,.11,.22,.19,.35,.22,.13,.03,.28,.05,.44,.05,.36,0,.74-.17,1.14-.5Z"/><path class="e" d="M43.79,96.74c-.43-.5-.65-1.15-.65-1.94,0-.37,.05-.81,.14-1.31,.09-.5,.23-1.14,.42-1.92,.19-.8,.33-1.43,.42-1.91,.09-.48,.14-.89,.14-1.24,0-.85-.3-1.28-.9-1.28-.42,0-.81,.22-1.17,.67-.3,.38-.56,.93-.78,1.64l-1.7,8.02h-3.6l3.63-17,3.7-.5-1.34,6.3c.49-.54,1.01-.93,1.57-1.15,.42-.16,.86-.24,1.34-.24,.85,0,1.51,.22,2,.66,.52,.48,.78,1.2,.78,2.16,0,.58-.11,1.33-.32,2.26-.06,.27-.15,.67-.28,1.21-.24,.9-.41,1.62-.51,2.16-.07,.34-.1,.62-.1,.83,0,.33,.08,.59,.23,.78,.15,.18,.41,.27,.78,.27,.5,0,.92-.2,1.26-.61,.26-.31,.54-.84,.84-1.6h1.05c-.62,1.83-1.4,3.11-2.34,3.85-.67,.52-1.44,.78-2.31,.78-1.03,0-1.8-.29-2.29-.88Z"/><path class="e" d="M57.59,80.92h-.29c-1.48,0-2.6,.34-3.34,1.01-.9,.81-1.35,2.16-1.35,4.04,0,.52,.06,.94,.17,1.25,.03,.11,.07,.2,.12,.28,.03,.06,.05,.11,.05,.17-.9,0-1.56-.18-1.98-.54-.46-.39-.7-1.02-.7-1.88s.16-1.68,.48-2.46c.32-.78,.81-1.46,1.47-2.04,.71-.63,1.61-1.13,2.7-1.48,1.09-.35,2.39-.52,3.88-.52,.85,0,1.67,.05,2.45,.15,.24,.02,.56,.07,.95,.13,.65,.12,1.28,.2,1.88,.24,.29,.03,.66,.05,1.11,.05,.55,0,1.08-.05,1.59-.15,.5-.1,.94-.22,1.32-.38-.04,1.09-.32,1.89-.84,2.4-.52,.51-1.28,.77-2.29,.77-.55,0-1.09-.04-1.65-.13-.55-.09-1.3-.23-2.23-.42l-3.45,16.05h-3.59l3.54-16.55Z"/><path class="e" d="M63.15,96.91c-.52-.52-.78-1.28-.78-2.28,0-.47,.07-1.02,.2-1.64l1.7-8.02h3.6l-1.79,8.5c-.07,.21-.1,.48-.1,.81,0,.34,.08,.58,.24,.72,.16,.14,.42,.21,.78,.21,.24,0,.48-.05,.71-.17,.23-.11,.45-.26,.64-.46,.4-.4,.7-.93,.9-1.59h1.05c-.45,1.26-1.01,2.27-1.68,3.02-.57,.61-1.21,1.05-1.93,1.32-.52,.2-1.07,.29-1.64,.29-.8,0-1.43-.24-1.89-.71Zm2.82-13.45c-.24-.1-.46-.24-.63-.42-.18-.17-.32-.38-.42-.62-.1-.24-.15-.5-.15-.77s.05-.52,.15-.77c.1-.24,.24-.46,.42-.65,.18-.19,.39-.33,.63-.43,.24-.1,.5-.15,.77-.15s.52,.05,.77,.15c.24,.1,.46,.25,.65,.43,.19,.19,.33,.4,.43,.65,.1,.24,.15,.5,.15,.77s-.05,.52-.15,.77c-.1,.24-.25,.45-.43,.62-.19,.18-.4,.32-.65,.42-.24,.1-.5,.15-.77,.15s-.52-.05-.77-.15Z"/><path class="e" d="M70.36,96.72c-.68-.7-1.03-1.74-1.03-3.12,0-.59,.06-1.2,.18-1.86,.12-.65,.29-1.29,.52-1.93,.52-1.43,1.23-2.59,2.14-3.47,1.04-1,2.24-1.5,3.6-1.5,.68,0,1.18,.12,1.52,.35,.34,.23,.51,.54,.51,.92v.1l1.22-5.75,3.7-.5-2.87,13.5c-.07,.24-.11,.51-.11,.81,0,.34,.08,.58,.24,.72,.16,.14,.42,.21,.78,.21,.46,0,.88-.21,1.25-.62,.31-.37,.57-.9,.78-1.59h1.05c-.44,1.25-.98,2.24-1.62,2.97-.55,.6-1.15,1.02-1.82,1.26-.48,.17-1.01,.26-1.57,.26-.69,0-1.25-.18-1.67-.55-.42-.37-.68-.9-.78-1.6-.45,.68-.93,1.2-1.45,1.56-.68,.49-1.42,.73-2.25,.73-.95,0-1.72-.3-2.31-.89Zm4.51-1.66c.21-.09,.4-.22,.59-.38,.44-.4,.73-.92,.88-1.56v-.13l1.22-5.73c-.06-.23-.14-.41-.24-.55-.17-.21-.43-.32-.78-.32s-.66,.11-.97,.33c-.31,.22-.61,.52-.89,.92-.49,.71-.89,1.63-1.21,2.77-.15,.5-.26,1-.33,1.5-.07,.49-.11,.94-.11,1.34,0,.83,.15,1.39,.46,1.68,.11,.11,.22,.19,.35,.22,.13,.03,.28,.05,.44,.05,.18,0,.37-.04,.58-.13Z"/><path class="e" d="M83.95,96.69c-.71-.66-1.06-1.67-1.06-3.04,0-.51,.05-1.08,.15-1.71,.1-.63,.25-1.25,.46-1.88,.23-.7,.52-1.36,.87-1.99,.35-.63,.77-1.18,1.24-1.66,1.09-1.11,2.43-1.66,4.03-1.66,1.02,0,1.76,.24,2.22,.73,.36,.38,.54,.94,.54,1.66s-.15,1.37-.46,2c-.31,.62-.74,1.17-1.28,1.65-.55,.47-1.16,.85-1.86,1.13-.69,.28-1.41,.45-2.15,.49-.04,.42-.06,.76-.06,1,0,.81,.15,1.38,.46,1.68,.27,.28,.72,.42,1.34,.42,.9,0,1.73-.24,2.48-.73,.32-.2,.62-.45,.92-.73,.29-.28,.63-.64,1.03-1.07h.85c-.79,1.33-1.7,2.4-2.72,3.19-1.26,.96-2.65,1.44-4.15,1.44-1.23,0-2.18-.31-2.84-.93Zm4.25-5.87c.44-.24,.83-.54,1.17-.93,.34-.39,.61-.83,.81-1.31,.2-.48,.29-.98,.29-1.48,0-.33-.05-.59-.14-.76-.09-.18-.25-.26-.48-.26-.3,0-.6,.15-.91,.44-.3,.29-.6,.7-.88,1.21-.26,.48-.5,1.03-.71,1.64-.21,.61-.38,1.23-.5,1.87,.46-.03,.92-.17,1.35-.4Z"/><path class="e" d="M105.28,80.39c-1.19,.45-2.11,1.14-2.75,2.08-.65,.94-.97,2.1-.97,3.47,0,.52,.06,.94,.17,1.25,.03,.11,.07,.2,.12,.28,.03,.06,.05,.11,.05,.17-.9,0-1.56-.18-1.98-.54-.46-.39-.7-1.02-.7-1.89,0-.54,.12-1.08,.35-1.62,.24-.53,.57-1.05,1-1.54,.41-.47,.89-.91,1.46-1.32,.57-.41,1.18-.77,1.84-1.07,1.38-.63,2.76-.94,4.13-.94,.37,0,.71,.02,1,.05l.22,15.38,5.26-15.31h3.17l.22,15.31,5.25-15.31h1.76l-6.96,18.63h-3.6l-.29-12.72-4.75,12.72h-3.6l-.4-17.08Z"/><path class="e" d="M124.25,96.72c-.68-.7-1.03-1.74-1.03-3.12,0-.59,.06-1.2,.18-1.86,.12-.65,.29-1.29,.52-1.93,.52-1.43,1.23-2.59,2.14-3.47,1.04-1,2.24-1.5,3.6-1.5,.68,0,1.18,.12,1.52,.35,.34,.23,.51,.54,.51,.92v.18l.27-1.33h3.6l-1.79,8.5c-.07,.24-.11,.51-.11,.81,0,.72,.34,1.07,1.03,1.07,.46,0,.87-.23,1.25-.7,.32-.39,.58-.94,.78-1.66h1.05c-.45,1.27-.99,2.27-1.62,3.02-.54,.61-1.14,1.05-1.82,1.32-.5,.2-1.02,.29-1.57,.29-.71,0-1.27-.19-1.69-.58-.42-.39-.67-.96-.76-1.71-.47,.67-.97,1.19-1.49,1.56-.67,.49-1.41,.73-2.23,.73-.95,0-1.72-.3-2.31-.89Zm4.52-1.67c.21-.1,.41-.24,.6-.42,.44-.42,.73-.97,.88-1.65l1.2-5.64c0-.08-.02-.18-.06-.29-.04-.11-.09-.21-.15-.31-.2-.24-.47-.35-.82-.35s-.66,.11-.97,.33c-.31,.22-.61,.52-.89,.92-.49,.71-.89,1.63-1.21,2.77-.15,.5-.26,1-.33,1.5-.07,.49-.11,.94-.11,1.34,0,.83,.15,1.39,.46,1.68,.11,.11,.22,.19,.35,.22,.13,.03,.28,.05,.44,.05,.19,0,.38-.05,.59-.15Z"/><path class="e" d="M138.37,97.34c-.46-.18-.85-.44-1.17-.76-.29-.3-.51-.64-.66-1.01-.15-.37-.22-.75-.22-1.15,0-.54,.14-1.04,.42-1.48,.24-.39,.55-.67,.92-.84,.65-1.16,1.22-2.33,1.7-3.52,.48-1.19,.94-2.49,1.38-3.89l3.7-.49c.1,2.12,.19,3.74,.27,4.87,.08,1.16,.15,2.02,.21,2.56,.05,.63,.07,1.19,.07,1.66,0,.42-.03,.74-.1,.95,.75-.44,1.35-.86,1.79-1.26h1.05c-.59,.69-1.21,1.29-1.84,1.78-.63,.5-1.29,.94-1.98,1.34-.5,.52-1.12,.91-1.87,1.16-.65,.23-1.34,.34-2.06,.34-.6,0-1.14-.09-1.6-.27Zm2.31-2.22c.45-.41,.67-1.01,.67-1.81,0-.33-.02-.75-.06-1.26l-.06-.74c-.07-.64-.15-1.39-.22-2.23l-.13-1.68c-.24,.76-.52,1.51-.84,2.25-.33,.74-.72,1.57-1.18,2.47,.38,.21,.57,.5,.57,.87,0,.33-.1,.61-.29,.84-.21,.26-.48,.39-.81,.39-.16,0-.3-.02-.41-.07-.11-.04-.2-.13-.26-.26,0,.6,.12,1.04,.35,1.32,.24,.28,.63,.42,1.17,.42,.63,0,1.13-.17,1.5-.51Z"/><path class="e" d="M153.82,96.74c-.43-.5-.65-1.15-.65-1.94,0-.37,.05-.81,.14-1.31,.09-.5,.23-1.14,.42-1.92,.19-.8,.33-1.43,.42-1.91,.09-.48,.14-.89,.14-1.24,0-.85-.3-1.28-.9-1.28-.42,0-.81,.22-1.17,.67-.3,.38-.56,.93-.78,1.64l-1.7,8.02h-3.6l3.63-17,3.7-.5-1.34,6.3c.49-.54,1.01-.93,1.57-1.15,.42-.16,.86-.24,1.34-.24,.85,0,1.51,.22,2,.66,.52,.48,.78,1.2,.78,2.16,0,.58-.11,1.33-.32,2.26-.06,.27-.15,.67-.28,1.21-.24,.9-.41,1.62-.51,2.16-.07,.34-.1,.62-.1,.83,0,.33,.08,.59,.23,.78,.15,.18,.41,.27,.78,.27,.5,0,.92-.2,1.26-.61,.26-.31,.54-.84,.84-1.6h1.05c-.62,1.83-1.4,3.11-2.34,3.85-.67,.52-1.44,.78-2.31,.78-1.03,0-1.8-.29-2.29-.88Z"/><path class="e" d="M160.73,96.91c-.52-.52-.78-1.28-.78-2.28,0-.47,.07-1.02,.2-1.64l1.7-8.02h3.6l-1.79,8.5c-.07,.21-.1,.48-.1,.81,0,.34,.08,.58,.24,.72,.16,.14,.42,.21,.78,.21,.24,0,.48-.05,.71-.17,.23-.11,.45-.26,.64-.46,.4-.4,.7-.93,.9-1.59h1.05c-.45,1.26-1.01,2.27-1.68,3.02-.57,.61-1.21,1.05-1.93,1.32-.52,.2-1.07,.29-1.64,.29-.8,0-1.43-.24-1.89-.71Zm2.82-13.45c-.24-.1-.46-.24-.63-.42-.18-.17-.32-.38-.42-.62-.1-.24-.15-.5-.15-.77s.05-.52,.15-.77c.1-.24,.24-.46,.42-.65,.18-.19,.39-.33,.63-.43,.24-.1,.5-.15,.77-.15s.52,.05,.77,.15c.24,.1,.46,.25,.65,.43,.19,.19,.33,.4,.43,.65,.1,.24,.15,.5,.15,.77s-.05,.52-.15,.77c-.1,.24-.25,.45-.43,.62-.19,.18-.4,.32-.65,.42-.24,.1-.5,.15-.77,.15s-.52-.05-.77-.15Z"/><path class="e" d="M173.97,96.74c-.43-.5-.65-1.15-.65-1.94,0-.37,.05-.81,.14-1.31,.09-.5,.23-1.14,.42-1.92,.19-.8,.33-1.43,.42-1.91,.09-.48,.14-.89,.14-1.24,0-.85-.3-1.28-.9-1.28-.42,0-.81,.22-1.17,.67-.3,.38-.56,.93-.78,1.64l-1.7,8.02h-3.6l2.65-12.5h3.6l-.27,1.29c.49-.54,1.01-.93,1.57-1.15,.42-.16,.86-.24,1.34-.24,.85,0,1.51,.22,2,.66,.52,.48,.78,1.2,.78,2.16,0,.58-.11,1.33-.32,2.26-.06,.27-.15,.67-.28,1.21-.24,.9-.41,1.62-.51,2.16-.07,.34-.1,.62-.1,.83,0,.33,.08,.59,.23,.78,.15,.18,.41,.27,.78,.27,.5,0,.92-.2,1.26-.61,.26-.31,.54-.84,.84-1.6h1.05c-.62,1.83-1.4,3.11-2.34,3.85-.67,.52-1.44,.78-2.31,.78-1.03,0-1.8-.29-2.29-.88Z"/><path class="e" d="M183.62,103.57c-.34-.1-.63-.25-.87-.46-.26-.2-.46-.46-.61-.76-.15-.31-.22-.66-.22-1.06,0-.94,.44-1.75,1.33-2.43,.67-.5,1.58-.93,2.75-1.29l.31-1.32c-.85,.91-1.86,1.37-3,1.37-.95,0-1.72-.3-2.31-.89-.68-.7-1.03-1.74-1.03-3.12,0-.59,.06-1.2,.18-1.86,.12-.65,.29-1.29,.52-1.93,.52-1.43,1.23-2.59,2.14-3.47,1.04-1,2.24-1.5,3.6-1.5,.68,0,1.18,.12,1.52,.35,.34,.23,.51,.54,.51,.92v.15l.27-1.29h3.6l-2.48,11.6c.79-.26,1.42-.65,1.89-1.17,.51-.56,.93-1.36,1.26-2.4h1.05c-.45,1.48-1.12,2.62-2,3.43-.65,.59-1.46,1-2.42,1.25l-.38,1.81c-.32,1.59-.95,2.75-1.9,3.47-.69,.52-1.56,.78-2.6,.78-.39,0-.75-.05-1.09-.15Zm1.32-2.35c.28-.36,.49-.92,.65-1.67l.15-.72c-.76,.28-1.32,.57-1.7,.87-.5,.37-.74,.79-.74,1.26,0,.22,.07,.4,.21,.55,.15,.18,.37,.27,.63,.27s.53-.18,.81-.55Zm1.11-6.52c.43-.37,.72-.86,.87-1.45l1.27-5.92c0-.08-.02-.17-.06-.28-.04-.11-.09-.2-.15-.29-.2-.24-.47-.35-.82-.35s-.66,.11-.97,.33c-.31,.22-.61,.52-.89,.92-.49,.71-.89,1.63-1.21,2.77-.15,.5-.26,1-.33,1.5-.07,.49-.11,.94-.11,1.34,0,.83,.15,1.39,.46,1.68,.11,.11,.22,.19,.35,.22,.13,.03,.28,.05,.44,.05,.36,0,.74-.17,1.14-.5Z"/><path class="e" d="M203.19,97.61c-.64-.21-1.2-.51-1.66-.9-.47-.39-.83-.85-1.08-1.39-.25-.54-.37-1.13-.37-1.78,0-.54,.09-1.06,.26-1.54,.18-.48,.42-.91,.74-1.26,.32-.36,.69-.64,1.11-.84,.42-.2,.87-.3,1.34-.3,.59,0,1.08,.15,1.48,.44,.4,.29,.65,.7,.74,1.21-.87,0-1.56,.23-2.08,.7-.24,.22-.43,.49-.57,.81-.13,.32-.2,.67-.2,1.05,0,.73,.21,1.31,.64,1.74s1,.64,1.73,.64c.43,0,.83-.08,1.21-.24,.37-.16,.7-.38,.98-.65s.49-.61,.64-.99c.15-.39,.23-.8,.23-1.24,0-.81-.28-1.66-.83-2.54-.22-.34-.46-.68-.73-1.01-.26-.33-.63-.77-1.1-1.31-.42-.49-.78-.91-1.06-1.27-.29-.36-.54-.72-.77-1.1-.55-.9-.83-1.79-.83-2.66,0-.65,.14-1.26,.42-1.81,.28-.56,.67-1.04,1.18-1.46s1.11-.74,1.79-.96c.68-.23,1.42-.34,2.21-.34,1.34,0,2.42,.32,3.23,.95,.39,.31,.69,.68,.9,1.11,.21,.43,.31,.91,.31,1.44,0,.69-.18,1.26-.52,1.7-.16,.21-.36,.37-.6,.49-.24,.11-.49,.17-.76,.17-.63,0-1.14-.26-1.53-.78,.32-.23,.57-.53,.75-.91,.18-.38,.27-.78,.27-1.21,0-.54-.16-.96-.48-1.28-.32-.31-.75-.47-1.31-.47-.33,0-.64,.06-.92,.18-.28,.12-.52,.3-.71,.52-.2,.23-.36,.5-.47,.81-.11,.31-.17,.65-.17,1.01,0,.52,.12,1.02,.37,1.5,.24,.48,.59,.98,1.05,1.5,.41,.48,.85,.96,1.32,1.43,1.1,1.14,1.88,2.25,2.33,3.33,.27,.64,.4,1.35,.4,2.12,0,.81-.17,1.57-.5,2.26-.33,.7-.81,1.3-1.43,1.81-.62,.52-1.34,.92-2.16,1.21-.82,.28-1.7,.43-2.64,.43-.8,0-1.52-.1-2.16-.31Z"/><path class="e" d="M214.64,96.69c-.71-.66-1.06-1.67-1.06-3.04,0-.51,.05-1.08,.15-1.71,.1-.63,.25-1.25,.46-1.88,.23-.7,.52-1.36,.87-1.99,.35-.63,.77-1.18,1.24-1.66,1.09-1.11,2.43-1.66,4.03-1.66,1.02,0,1.76,.24,2.22,.73,.36,.38,.54,.94,.54,1.66s-.15,1.37-.46,2c-.31,.62-.74,1.17-1.28,1.65-.55,.47-1.16,.85-1.86,1.13-.69,.28-1.41,.45-2.15,.49-.04,.42-.06,.76-.06,1,0,.81,.15,1.38,.46,1.68,.27,.28,.72,.42,1.34,.42,.9,0,1.73-.24,2.48-.73,.32-.2,.62-.45,.92-.73,.29-.28,.63-.64,1.03-1.07h.85c-.79,1.33-1.7,2.4-2.72,3.19-1.26,.96-2.65,1.44-4.15,1.44-1.23,0-2.18-.31-2.84-.93Zm4.25-5.87c.44-.24,.83-.54,1.17-.93,.34-.39,.61-.83,.81-1.31,.2-.48,.29-.98,.29-1.48,0-.33-.05-.59-.14-.76-.09-.18-.25-.26-.48-.26-.3,0-.6,.15-.91,.44-.3,.29-.6,.7-.88,1.21-.26,.48-.5,1.03-.71,1.64-.21,.61-.38,1.23-.5,1.87,.46-.03,.92-.17,1.35-.4Z"/><path class="e" d="M225.62,84.97h3.6l-.32,1.55c.57-.5,1.03-.86,1.39-1.07,.55-.32,1.09-.48,1.62-.48s.97,.19,1.29,.57c.15,.17,.26,.37,.33,.59,.07,.22,.11,.46,.11,.71,0,.23-.04,.45-.11,.66-.07,.21-.18,.4-.33,.57-.16,.18-.36,.32-.59,.43-.23,.11-.49,.16-.77,.16-.22,0-.4-.04-.52-.11-.13-.07-.23-.18-.31-.32-.07-.14-.11-.27-.13-.4-.07-.35-.15-.58-.22-.7-.06-.08-.15-.12-.27-.12-.35,0-.65,.07-.89,.22s-.55,.39-.93,.73l-2,9.5h-3.6l2.65-12.5Z"/><path class="e" d="M234.33,96.88c-.54-.49-.81-1.23-.81-2.2,0-.41,.04-.81,.12-1.21l1.79-8.5h3.6l-1.79,8.5c-.09,.4-.13,.7-.13,.9,0,.26,.07,.46,.21,.61,.14,.15,.35,.22,.65,.22,.39,0,.77-.14,1.15-.42,.37-.28,.73-.66,1.06-1.15,.31-.45,.6-.97,.86-1.56,.26-.59,.49-1.21,.68-1.84,.18-.62,.32-1.22,.42-1.81,.1-.59,.15-1.11,.15-1.57-.03,.07-.15,.13-.35,.18-.13,.04-.28,.06-.44,.06-.29,0-.51-.14-.67-.42-.15-.24-.23-.52-.23-.85,0-.41,.13-.73,.39-.98,.26-.25,.65-.37,1.16-.37,.55,0,.96,.22,1.23,.67,.23,.37,.34,.88,.34,1.5,0,.69-.06,1.44-.18,2.25-.12,.81-.29,1.6-.53,2.38-.57,1.86-1.34,3.32-2.31,4.38-1.17,1.31-2.54,1.97-4.11,1.97-.97,0-1.72-.25-2.26-.74Z"/><path class="e" d="M245.11,96.91c-.52-.52-.78-1.28-.78-2.28,0-.47,.07-1.02,.2-1.64l1.7-8.02h3.6l-1.79,8.5c-.07,.21-.1,.48-.1,.81,0,.34,.08,.58,.24,.72,.16,.14,.42,.21,.78,.21,.24,0,.48-.05,.71-.17,.23-.11,.45-.26,.64-.46,.4-.4,.7-.93,.9-1.59h1.05c-.45,1.26-1.01,2.27-1.68,3.02-.57,.61-1.21,1.05-1.93,1.32-.52,.2-1.07,.29-1.64,.29-.8,0-1.43-.24-1.89-.71Zm2.82-13.45c-.24-.1-.46-.24-.63-.42-.18-.17-.32-.38-.42-.62-.1-.24-.15-.5-.15-.77s.05-.52,.15-.77c.1-.24,.24-.46,.42-.65,.18-.19,.39-.33,.63-.43,.24-.1,.5-.15,.77-.15s.52,.05,.77,.15c.24,.1,.46,.25,.65,.43,.19,.19,.33,.4,.43,.65,.1,.24,.15,.5,.15,.77s-.05,.52-.15,.77c-.1,.24-.25,.45-.43,.62-.19,.18-.4,.32-.65,.42-.24,.1-.5,.15-.77,.15s-.52-.05-.77-.15Z"/><path class="e" d="M252.36,96.69c-.71-.66-1.06-1.67-1.06-3.04,0-.51,.05-1.08,.15-1.72,.1-.63,.26-1.26,.47-1.89,.5-1.52,1.2-2.73,2.11-3.64,1.12-1.11,2.45-1.66,3.99-1.66,1,0,1.74,.24,2.22,.72,.37,.38,.56,.91,.56,1.57,0,.59-.13,1.04-.39,1.37-.24,.3-.56,.45-.94,.45-.28,0-.57-.1-.88-.29,.2-.53,.31-1.02,.31-1.48,0-.32-.06-.57-.18-.75-.12-.18-.29-.27-.52-.27-.49,0-1,.43-1.53,1.29-.48,.77-.88,1.74-1.2,2.92-.33,1.16-.49,2.2-.49,3.14,0,.81,.15,1.38,.46,1.68,.27,.28,.72,.42,1.34,.42,.9,0,1.73-.24,2.48-.73,.32-.2,.62-.45,.92-.73,.29-.28,.63-.64,1.03-1.07h.85c-.79,1.33-1.7,2.4-2.72,3.19-1.26,.96-2.65,1.44-4.15,1.44-1.23,0-2.18-.31-2.84-.93Z"/><path class="e" d="M262.38,96.69c-.71-.66-1.06-1.67-1.06-3.04,0-.51,.05-1.08,.15-1.71,.1-.63,.25-1.25,.46-1.88,.23-.7,.52-1.36,.87-1.99,.35-.63,.77-1.18,1.24-1.66,1.09-1.11,2.43-1.66,4.03-1.66,1.02,0,1.76,.24,2.22,.73,.36,.38,.54,.94,.54,1.66s-.15,1.37-.46,2c-.31,.62-.74,1.17-1.28,1.65-.55,.47-1.16,.85-1.86,1.13-.69,.28-1.41,.45-2.15,.49-.04,.42-.06,.76-.06,1,0,.81,.15,1.38,.46,1.68,.27,.28,.72,.42,1.34,.42,.9,0,1.73-.24,2.48-.73,.32-.2,.62-.45,.92-.73,.29-.28,.63-.64,1.03-1.07h.85c-.79,1.33-1.7,2.4-2.72,3.19-1.26,.96-2.65,1.44-4.15,1.44-1.23,0-2.18-.31-2.84-.93Zm4.25-5.87c.44-.24,.83-.54,1.17-.93,.34-.39,.61-.83,.81-1.31,.2-.48,.29-.98,.29-1.48,0-.33-.05-.59-.14-.76-.09-.18-.25-.26-.48-.26-.3,0-.6,.15-.91,.44-.3,.29-.6,.7-.88,1.21-.26,.48-.5,1.03-.71,1.64-.21,.61-.38,1.23-.5,1.87,.46-.03,.92-.17,1.35-.4Z"/><path class="e" d="M272.91,97.34c-.46-.18-.85-.44-1.17-.76-.29-.3-.51-.64-.66-1.01-.15-.37-.22-.75-.22-1.15,0-.54,.14-1.04,.42-1.48,.24-.39,.55-.67,.92-.84,.65-1.16,1.22-2.33,1.7-3.52,.48-1.19,.94-2.49,1.38-3.89l3.7-.49c.1,2.12,.19,3.74,.27,4.87,.08,1.16,.15,2.02,.21,2.56,.05,.63,.07,1.19,.07,1.66,0,.42-.03,.74-.1,.95,.75-.44,1.35-.86,1.79-1.26h1.05c-.59,.69-1.21,1.29-1.84,1.78-.63,.5-1.29,.94-1.98,1.34-.5,.52-1.12,.91-1.87,1.16-.65,.23-1.34,.34-2.06,.34-.6,0-1.14-.09-1.6-.27Zm2.31-2.22c.45-.41,.67-1.01,.67-1.81,0-.33-.02-.75-.06-1.26l-.06-.74c-.07-.64-.15-1.39-.22-2.23l-.13-1.68c-.24,.76-.52,1.51-.84,2.25-.33,.74-.72,1.57-1.18,2.47,.38,.21,.57,.5,.57,.87,0,.33-.1,.61-.29,.84-.21,.26-.48,.39-.81,.39-.16,0-.3-.02-.41-.07-.11-.04-.2-.13-.26-.26,0,.6,.12,1.04,.35,1.32,.24,.28,.63,.42,1.17,.42,.63,0,1.13-.17,1.5-.51Z"/></g></g></g></g></svg>