<?xml version="1.0" encoding="UTF-8"?><svg xmlns="http://www.w3.org/2000/svg" viewBox="0 0 43.48 43.44"><defs><style>.d{fill:rgba(255,255,255,.75);}.d:hover{fill:rgba(255,255,255,1);}</style></defs><g id="a"/><g id="b"><g id="c"><path class="d" d="M.03,7.49c-.18-1.38,.47-2.79,1.79-3.94,.64-.56,1.24-1.18,1.81-1.81,2.14-2.37,5.87-2.35,8.15,.32,.63,.74,1.07,1.69,1.39,2.62,.54,1.61,.94,3.27,1.37,4.92,.53,2.06,.05,3.87-1.43,5.4-.47,.49-1,.93-1.42,1.46-.18,.22-.29,.64-.21,.9,2.37,7.42,7.28,12.32,14.69,14.69,.26,.08,.68-.05,.9-.23,.52-.43,.97-.95,1.46-1.42,1.53-1.49,3.35-1.95,5.41-1.42,1.72,.44,3.44,.91,5.15,1.39,3.33,.94,5.26,4.5,4.03,7.55-.25,.63-.69,1.22-1.15,1.74-.77,.86-1.63,1.63-2.44,2.47-.89,.93-1.98,1.33-3.24,1.32-16.38-.05-30.8-11.21-35.01-27.09C.53,13.58,.14,10.75,.03,7.49Z"/></g></g></svg>