<?xml version="1.0" encoding="UTF-8"?><svg xmlns="http://www.w3.org/2000/svg" viewBox="0 0 40 40"><defs><style>.d{fill:none;}.e{fill:#fff;}.f{fill:rgba(0,0,0,.5);}</style></defs><g id="a"/><g id="b"><g id="c"><g><path class="f" d="M7.27,0h25.45c4.01,0,7.27,3.26,7.27,7.27v25.46c0,4.01-3.26,7.27-7.27,7.27H7.27c-4.01,0-7.27-3.26-7.27-7.27V7.27C0,3.26,3.26,0,7.27,0Z"/><path class="d" d="M20.1,29.14h0c-.94,0-1.83-.35-2.51-1l-12.8-7.89v12.24c0,1.04,.85,1.89,1.89,1.89h26.59c1.04,0,1.89-.85,1.89-1.89v-12.03l-12.54,7.69c-.68,.64-1.57,.99-2.51,.99Z"/><path class="d" d="M5.37,18.42l13.47,8.3c.34,.34,.79,.52,1.27,.52h0c.48,0,.92-.19,1.26-.52l.17-.14,13.28-8.14c.15-.17,.27-.37,.34-.57v-.18c0-1.04-.85-1.89-1.89-1.89H6.68c-.8,0-1.48,.5-1.76,1.21-.05,.49,.09,1.01,.45,1.4Z"/><path class="d" d="M21.34,4.66c-.7-.7-1.83-.7-2.53,0L7.99,13.81h24.17L21.34,4.66Z"/><path class="e" d="M37.13,17.45c.04-1.01-.31-2.04-1.11-2.84L22.64,3.3c-1.44-1.4-3.75-1.4-5.11-.03L4.09,14.63c-.27,.27-.47,.57-.63,.89-.42,.62-.67,1.37-.67,2.18v14.79c0,2.15,1.75,3.89,3.89,3.89h26.59c2.15,0,3.89-1.75,3.89-3.89v-14.79c0-.09-.02-.17-.03-.25Zm-10.76,8.39l8.79-5.38v12.03c0,.18-.03,.34-.08,.51l-8.71-7.15ZM18.81,4.66c.7-.69,1.83-.69,2.53,0l10.82,9.15,2.59,2.19c.51,.51,.65,1.25,.42,1.88-.08,.21-.19,.4-.34,.57l-13.28,8.14-.17,.14c-.34,.34-.78,.52-1.26,.52h0c-.48,0-.93-.19-1.27-.52L5.37,18.42c-.36-.4-.5-.92-.45-1.4,.04-.37,.19-.73,.45-1l2.61-2.21L18.81,4.66ZM4.92,33.17c-.08-.21-.13-.44-.13-.68v-12.24l9.21,5.68-9.08,7.24Zm1.76,1.21c-.07,0-.15-.01-.22-.02l9.25-7.37,1.87,1.15c.68,.64,1.57,.99,2.51,1h0c.94,0,1.83-.35,2.51-.99l2.05-1.26,9.05,7.43c-.14,.04-.29,.06-.45,.06H6.68Z"/></g></g></g></svg>