<?xml version="1.0" encoding="UTF-8"?><svg xmlns="http://www.w3.org/2000/svg" viewBox="0 0 40 40"><defs><style>.d{fill:#fff;}.e{fill:rgba(0,0,0,.5)}</style></defs><g id="a"/><g id="b"><g id="c"><g><rect class="e" width="40" height="40" rx="7.78" ry="7.78"/><path class="d" d="M33.95,17.23h-13.91v5.46h8.38c-.59,1.85-1.77,3.43-3.33,4.53-1.44,1.02-3.2,1.62-5.1,1.62-3.84,0-7.11-2.45-8.33-5.87-.33-.93-.51-1.93-.51-2.97,0-1.15,.22-2.25,.62-3.26,1.3-3.27,4.49-5.58,8.22-5.58,2.12,0,4.06,.74,5.58,1.98l3.84-3.8c-2.51-2.22-5.81-3.57-9.42-3.57-5.41,0-10.12,3.02-12.52,7.47-1.09,2.01-1.7,4.31-1.7,6.75s.58,4.59,1.6,6.55c2.37,4.56,7.14,7.67,12.63,7.67,3.63,0,6.95-1.36,9.46-3.6,2.92-2.61,4.76-6.4,4.76-10.62,0-.95-.09-1.88-.27-2.77Z"/></g></g></g></svg>