<?xml version="1.0" encoding="UTF-8"?><svg xmlns="http://www.w3.org/2000/svg" viewBox="0 0 40 40"><defs><style>.d{fill:#fff;}.e{fill:#2a67b2;}</style></defs><g id="a"/><g id="b"><g id="c"><g><path class="e" d="M7.27,0h25.45c4.01,0,7.27,3.26,7.27,7.27v25.46c0,4.01-3.26,7.27-7.27,7.27H7.27c-4.01,0-7.27-3.26-7.27-7.27V7.27C0,3.26,3.26,0,7.27,0Z"/><g><rect class="d" x="8.28" y="15.52" width="4.76" height="15.62"/><circle class="d" cx="10.76" cy="11.14" r="2.29"/><path class="d" d="M29.81,16.67c-1.9-1.52-4.1-1.62-5.81-1.05-1.71,.57-3.14,2.02-3.14,2.02v-2.12h-4.76v15.62h4.76v-8.76c0-1.68,1.36-3.05,3.05-3.05s3.05,1.36,3.05,3.05v8.76h4.76v-8.76c0-1.71,0-4.19-1.91-5.71Z"/></g></g></g></g></svg>