<?xml version="1.0" encoding="UTF-8"?><svg xmlns="http://www.w3.org/2000/svg" viewBox="0 0 40 40"><defs><style>.e{fill:#f3b71a;}.f{fill:#ee2f27;}.g{fill:#fff;}.h{fill:#0fad4b;}.i{fill:#4a7ec1;}</style></defs><g id="a"/><g id="b"><g id="c"><g><path class="g" d="M7.27,0h25.45c4.01,0,7.27,3.26,7.27,7.27v25.46c0,4.01-3.26,7.27-7.27,7.27H7.27c-4.01,0-7.27-3.26-7.27-7.27V7.27C0,3.26,3.26,0,7.27,0Z"/><g id="d"><g><path class="i" d="M34.56,20c0,4.17-1.82,7.92-4.7,10.49l-4.31-3.36c1.53-1.08,2.7-2.65,3.29-4.48h-8.28v-5.4h13.74c.18,.89,.27,1.8,.27,2.74Z"/><path class="h" d="M29.86,30.49c-2.48,2.21-5.76,3.56-9.35,3.56-5.43,0-10.13-3.08-12.48-7.58l4.25-3.54c1.21,3.38,4.43,5.8,8.23,5.8,1.88,0,3.61-.59,5.03-1.6l4.31,3.36Z"/><path class="f" d="M29.82,9.47l-3.8,3.75c-1.5-1.22-3.42-1.96-5.51-1.96-3.69,0-6.84,2.28-8.12,5.52l-4.25-3.46c2.38-4.39,7.02-7.38,12.37-7.38,3.57,0,6.83,1.33,9.31,3.53Z"/><path class="e" d="M11.77,20c0,1.03,.18,2.02,.5,2.93l-4.25,3.54c-1.01-1.94-1.58-4.14-1.58-6.47s.61-4.69,1.68-6.67l4.25,3.46c-.4,1-.61,2.08-.61,3.22Z"/></g></g></g></g></g></svg>