<?xml version="1.0" encoding="UTF-8"?><svg xmlns="http://www.w3.org/2000/svg" xmlns:xlink="http://www.w3.org/1999/xlink" viewBox="0 0 40 40"><defs><style>.e{fill:url(#d);}.f{fill:#fff;}</style><linearGradient id="d" x1="0" y1="20" x2="40" y2="20" gradientTransform="matrix(1, 0, 0, 1, 0, 0)" gradientUnits="userSpaceOnUse"><stop offset="0" stop-color="#fcd65c"/><stop offset=".47" stop-color="#dd4a6b"/><stop offset=".96" stop-color="#634c9f"/></linearGradient></defs><g id="a"/><g id="b"><g id="c"><g><path class="e" d="M7.27,0h25.45c4.01,0,7.27,3.26,7.27,7.27v25.46c0,4.01-3.26,7.27-7.27,7.27H7.27c-4.01,0-7.27-3.26-7.27-7.27V7.27C0,3.26,3.26,0,7.27,0Z"/><g><path class="f" d="M28.01,35.65H11.99c-4.21,0-7.64-3.43-7.64-7.64V11.99c0-4.21,3.43-7.64,7.64-7.64H28.01c4.21,0,7.64,3.43,7.64,7.64V28.01c0,4.21-3.43,7.64-7.64,7.64ZM11.99,6.45c-3.05,0-5.54,2.49-5.54,5.54V28.01c0,3.05,2.49,5.54,5.54,5.54H28.01c3.05,0,5.54-2.49,5.54-5.54V11.99c0-3.05-2.49-5.54-5.54-5.54H11.99Z"/><path class="f" d="M20,28.62c-4.75,0-8.62-3.87-8.62-8.62s3.87-8.62,8.62-8.62,8.62,3.87,8.62,8.62-3.87,8.62-8.62,8.62Zm0-15.14c-3.6,0-6.52,2.93-6.52,6.52s2.93,6.52,6.52,6.52,6.52-2.93,6.52-6.52-2.93-6.52-6.52-6.52Z"/><circle class="f" cx="29.34" cy="11.32" r="1.65"/></g></g></g></g></svg>