<?xml version="1.0" encoding="UTF-8"?><svg xmlns="http://www.w3.org/2000/svg" xmlns:xlink="http://www.w3.org/1999/xlink" viewBox="0 0 40 40"><defs><style>.f{fill:url(#e);}.f,.g,.h,.i{stroke:#ae1f24;stroke-miterlimit:10;}.f,.g,.i{stroke-width:1.89px;}.g{fill:url(#d);}.h{stroke-width:2px;}.h,.i{fill:#fff;}</style><linearGradient id="d" x1="4.68" y1="30.21" x2="15.64" y2="30.21" gradientTransform="matrix(1, 0, 0, 1, 0, 0)" gradientUnits="userSpaceOnUse"><stop offset=".6" stop-color="#fff"/><stop offset="1" stop-color="#f7941d"/></linearGradient><linearGradient id="e" x1="24.75" y1="30.1" x2="35.37" y2="30.1" xlink:href="#d"/></defs><g id="a"/><g id="b"><g id="c"><g><path d="M7.27,0h25.45c4.01,0,7.27,3.26,7.27,7.27v25.46c0,4.01-3.26,7.27-7.27,7.27H7.27c-4.01,0-7.27-3.26-7.27-7.27V7.27C0,3.26,3.26,0,7.27,0Z"/><rect class="h" x="3.79" y="14.81" width="32.37" height="20.57" rx="2.89" ry="2.89"/><path class="i" d="M22.01,4l13.41,11.34c1.07,1.07,1.07,2.8,0,3.86l-13.38,8.2c-1.07,1.07-2.8,1.06-3.86,0L4.77,19.16c-1.07-1.07-1.07-2.8,0-3.86L18.14,3.99c1.07-1.07,2.8-1.06,3.86,0Z"/><line class="g" x1="4.68" y1="34.57" x2="15.64" y2="25.84"/><line class="f" x1="24.75" y1="25.73" x2="35.37" y2="34.46"/></g></g></g></svg>